<svg width="32" height="30" viewBox="0 0 33 31" fill="none" xmlns="http://www.w3.org/2000/svg">
<g clip-path="url(#clip0_582_1547)">
<path d="M1.39355 4.54838C1.39355 4.54838 25.7264 11.7061 23.5512 26.0105C23.2922 27.7138 28.8856 24.3987 28.8856 24.3987C28.8856 24.3987 28.3498 8.34502 4.85326 1.87793" fill="#553C9A"/>
<path d="M24.1814 23.1697C24.1814 23.1697 20.9068 23.6135 20.7776 23.5497C20.1895 23.2595 25.7912 29.1878 26.3834 29.4316C26.5329 29.4932 31.083 20.4655 31.4411 20.1063C32.1319 19.4133 27.7657 22.1515 27.7657 22.1515L24.1814 23.1697Z" fill="#553C9A"/>
<path d="M2.21436 3.91118C2.21436 3.91118 26.5472 11.0689 24.372 25.3732C24.113 27.0766 29.7064 23.7615 29.7064 23.7615C29.7064 23.7615 29.1706 7.70781 5.67406 1.24072" fill="#9F7AEA"/>
<path d="M31.5082 19.998L32.0001 20.5866L30.6839 21.4058L30.563 21.1998L31.5082 19.998Z" fill="#553C9A"/>
<path d="M24.6648 23.738C24.6648 23.738 21.3902 24.1817 21.261 24.118C20.6729 23.8277 26.2746 29.7561 26.8668 29.9999C27.0163 30.0614 31.5798 20.8815 31.9989 20.5872C32.0391 20.559 28.2491 22.7198 28.2491 22.7198L24.6648 23.738Z" fill="#9F7AEA"/>
<path d="M21.7812 0.253906L26.9702 2.30999C26.9702 2.30999 5.47493 11.0217 9.17557 23.5845C9.683 25.3071 3.36237 21.8762 3.36237 21.8762C3.36237 21.8762 2.7724 7.88691 21.7812 0.253906Z" fill="#FFD700"/>
<path d="M21.3271 0L26.3679 2.0679C26.3679 2.0679 3.88934 11.3212 8.42062 23.6389C9.03649 25.313 2.39991 21.6223 2.39991 21.6223C2.39991 21.6223 2.31832 7.63301 21.3271 0Z" fill="#F0E68C"/>
<path d="M0.830078 20.4373L11.617 23.2393C11.617 23.2393 3.72834 29.0536 3.70184 28.977C3.15961 27.4109 1.13878 21.0348 0.830078 20.4373Z" fill="#FFD700"/>
<path d="M22.5861 3.38339L19.8697 2.70879L19.126 1.16748L21.5793 1.67435L22.5861 3.38339Z" fill="#DAA520"/>
<path d="M0 20.2202L10.7869 23.0223C10.7869 23.0223 3.57089 28.5851 3.54439 28.5085C3.00216 26.9424 0.308698 20.8178 0 20.2202Z" fill="#F0E68C"/>
<path d="M26.9416 16.3608L27.2857 17.041L24.5972 18.7584L24.961 19.6438L24.4077 20.0746C24.4077 20.0746 24.0122 18.5137 23.8223 18.3301" fill="#553C9A"/>
<path d="M27.221 16.8812L26.7355 15.8936L25.6507 15.8286L26.2307 16.9064L24.3904 18.2582L23.7975 17.0105L23.2163 17.4088L24.4086 20.071L24.4917 17.8947L27.221 16.8812Z" fill="#553C9A"/>
<path d="M24.6785 20.8557L24.9072 21.8926L25.7487 21.5315C25.7487 21.5315 25.8821 23.0016 26.6346 22.416C27.387 21.8303 28.401 19.9379 28.5636 19.9283C28.7263 19.9187 24.2681 18.4385 25.2746 20.3491C25.7779 21.3044 26.107 20.5196 25.8032 20.4512C25.4995 20.3828 24.6479 20.7837 24.6479 20.7837L24.6785 20.8557Z" fill="#553C9A"/>
<path d="M18.7812 5.63797C18.7812 5.63797 21.1891 4.22375 21.1838 4.19927C21.1807 4.18486 20.4548 3.75171 20.4548 3.75171L18.0898 5.11951L18.7812 5.63797Z" fill="#DAA520"/>
<path d="M18.1085 5.10876C18.1085 5.10876 18.3211 1.82186 16.3686 3.98208C16.3559 3.99608 15.8125 3.55369 15.8125 3.55369C15.8125 3.55369 16.6915 2.18979 17.9562 2.61818C18.9136 2.94249 18.8681 4.78213 18.8681 4.78213L18.1085 5.10876Z" fill="#DAA520"/>
<g clip-path="url(#clip1_582_1547)">
<mask id="mask0_582_1547" style="mask-type:luminance" maskUnits="userSpaceOnUse" x="0" y="-1" width="32" height="31">
<path d="M32 -0.491699H0V29.5083H32V-0.491699Z" fill="white"/>
</mask>
<g mask="url(#mask0_582_1547)">
<path d="M0.900879 4.49724C0.900879 4.49724 24.4879 10.9025 22.3126 25.2068C22.0536 26.9102 28.8857 23.9067 28.8857 23.9067C28.8857 23.9067 28.3497 7.85306 4.85319 1.38599" fill="#553C9A"/>
<path d="M24.4332 21.8793C24.4332 21.8793 17.8969 22.6678 17.7677 22.6041C17.1796 22.3138 26.2171 29.1831 26.8093 29.4268C26.959 29.4885 31.0834 19.9738 31.4412 19.6146C32.1321 18.9216 27.7659 21.6598 27.7659 21.6598L24.4332 21.8793Z" fill="#553C9A"/>
<path d="M1.80371 3.77762C1.80371 3.77762 25.2334 10.4119 23.0582 24.7162C22.7992 26.4195 29.7063 23.2698 29.7063 23.2698C29.7063 23.2698 29.1706 7.2161 5.67394 0.749023" fill="#9F7AEA"/>
<path d="M31.5081 19.5063L32.0001 20.0949L30.6839 20.9141L30.563 20.7081L31.5081 19.5063Z" fill="#553C9A"/>
<path d="M24.8292 22.4766C24.8292 22.4766 19.7481 23.4281 19.6189 23.3643C19.0308 23.0741 26.2745 29.2641 26.8669 29.508C27.0164 29.5695 31.5797 20.3896 31.9988 20.0952C32.0389 20.0671 28.249 22.2279 28.249 22.2279L24.8292 22.4766Z" fill="#9F7AEA"/>
<path d="M21.7812 -0.237793L28.5575 2.47948C28.5575 2.47948 6.40542 10.53 10.1061 23.0928C10.6135 24.8154 3.36237 21.3845 3.36237 21.3845C3.36237 21.3845 2.7724 7.39522 21.7812 -0.237793Z" fill="#FFD700"/>
<path d="M21.3272 -0.491699L27.5983 2.09397C27.5983 2.09397 4.77642 10.3466 9.26902 23.5604C9.61396 25.4684 2.39991 21.1306 2.39991 21.1306C2.39991 21.1306 2.31832 7.14131 21.3272 -0.491699Z" fill="#F0E68C"/>
<path d="M0.830078 19.9456L14.329 23.2875C14.329 23.2875 3.73509 28.5579 3.70861 28.4814C3.16637 26.9153 1.13878 20.5431 0.830078 19.9456Z" fill="#FFD700"/>
<path d="M24.5294 3.02514L20.7374 2.20088L19.6992 0.317627L23.124 0.936944L24.5294 3.02514Z" fill="#DAA520"/>
<path d="M0 19.7285L13.1154 22.9812C13.1154 22.9812 3.52983 27.9557 3.50333 27.8792C2.96111 26.313 0.308697 20.326 0 19.7285Z" fill="#F0E68C"/>
<path d="M26.7337 15.3896L27.1871 16.2037L23.6431 18.2595L24.1225 19.3192L23.3934 19.8349C23.3934 19.8349 22.8719 17.9666 22.6216 17.7469" fill="#553C9A"/>
<path d="M27.1023 16.0124L26.4622 14.8302L25.0322 14.7524L25.7969 16.0425L23.371 17.6606L22.5893 16.1671L21.8232 16.6439L23.395 19.8305L23.5046 17.2255L27.1023 16.0124Z" fill="#553C9A"/>
<path d="M23.7507 20.7696L24.0521 22.0108L25.1614 21.5786C25.1614 21.5786 25.3375 23.3383 26.3293 22.6373C27.3211 21.9363 28.6577 19.6711 28.8722 19.6596C29.0867 19.6481 23.2097 17.8764 24.5367 20.1633C25.2 21.3068 25.6338 20.3674 25.2335 20.2855C24.833 20.2036 23.7104 20.6834 23.7104 20.6834L23.7507 20.7696Z" fill="#553C9A"/>
<path d="M19.2181 5.78007C19.2181 5.78007 22.5793 4.05213 22.572 4.0222C22.5677 4.00459 21.5543 3.47534 21.5543 3.47534L18.2529 5.14662L19.2181 5.78007Z" fill="#DAA520"/>
<path d="M18.2788 5.1334C18.2788 5.1334 18.5756 1.11729 15.85 3.75675C15.8323 3.77387 15.0737 3.23332 15.0737 3.23332C15.0737 3.23332 16.3008 1.56685 18.0663 2.09027C19.4028 2.48654 19.3392 4.73431 19.3392 4.73431L18.2788 5.1334Z" fill="#DAA520"/>
</g>
</g>
</g>
<defs>
<clipPath id="clip0_582_1547">
<rect width="32" height="30" fill="white"/>
</clipPath>
<clipPath id="clip1_582_1547">
<rect width="32" height="30" fill="white" transform="translate(0 -0.491699)"/>
</clipPath>
</defs>
</svg>
