<svg width="96" height="89" viewBox="0 0 96 89" fill="none" xmlns="http://www.w3.org/2000/svg">
<g clip-path="url(#clip0_582_1920)">
<mask id="mask0_582_1920" style="mask-type:luminance" maskUnits="userSpaceOnUse" x="0" y="0" width="96" height="89">
<path d="M96 0H0V89H96V0Z" fill="white"/>
</mask>
<g mask="url(#mask0_582_1920)">
<path d="M2.70312 14.8006C2.70312 14.8006 73.4643 33.8028 66.9384 76.239C66.1612 81.2923 86.6574 72.3821 86.6574 72.3821C86.6574 72.3821 85.0496 24.7562 14.5601 5.57056" fill="#B794F4"/>
<path d="M73.2991 66.367C73.2991 66.367 53.6903 68.7063 53.3027 68.5171C51.5384 67.6561 78.6509 88.035 80.4273 88.758C80.8765 88.9411 93.2496 60.7139 94.3232 59.6484C96.3957 57.5924 83.2972 65.7159 83.2972 65.7159L73.2991 66.367Z" fill="#B794F4"/>
<path d="M5.41064 12.6655C5.41064 12.6655 75.6998 32.3472 69.1742 74.7832C68.3971 79.8365 89.1183 70.4922 89.1183 70.4922C89.1183 70.4922 87.5112 22.8663 17.0213 3.68066" fill="#E9D8FD"/>
<path d="M94.5243 59.3271L96.0002 61.0732L92.0517 63.5035L91.689 62.8925L94.5243 59.3271Z" fill="#B794F4"/>
<path d="M74.4877 68.1396C74.4877 68.1396 59.2443 70.9625 58.8567 70.7733C57.0924 69.9123 78.8235 88.2758 80.6006 88.9995C81.0491 89.1819 94.739 61.9483 95.9965 61.075C96.1167 60.9915 84.7469 67.4018 84.7469 67.4018L74.4877 68.1396Z" fill="#E9D8FD"/>
<path d="M65.3437 0.75293L85.6725 8.81419C85.6725 8.81419 19.2163 32.6974 30.3182 69.9669C31.8404 75.0773 10.0871 64.899 10.0871 64.899C10.0871 64.899 8.31719 23.3975 65.3437 0.75293Z" fill="#E2E8F0"/>
<path d="M63.9815 0L82.7948 7.67083C82.7948 7.67083 14.3293 32.1536 27.8071 71.3546C28.8419 77.015 7.19972 64.1461 7.19972 64.1461C7.19972 64.1461 6.95496 22.6446 63.9815 0Z" fill="white"/>
<path d="M2.49023 60.6304L42.987 70.5447C42.987 70.5447 11.2053 86.1803 11.1258 85.9534C9.4991 81.3072 3.41633 62.4031 2.49023 60.6304Z" fill="#E2E8F0"/>
<path d="M73.5877 10.4334L62.2117 7.98809L59.0972 2.40112L69.3714 4.23843L73.5877 10.4334Z" fill="#A0AEC0"/>
<path d="M0 59.9868L39.3461 69.6364C39.3461 69.6364 10.5895 84.394 10.51 84.1671C8.88333 79.5209 0.926092 61.7594 0 59.9868Z" fill="white"/>
<path d="M80.2006 47.1147L81.5607 49.5298L70.9288 55.6285L72.3671 58.7724L70.1796 60.3024C70.1796 60.3024 68.6153 54.7597 67.8643 54.1078" fill="#B794F4"/>
<path d="M81.307 48.9622L79.3865 45.4551L75.0965 45.2244L77.3908 49.0514L70.1129 53.852L67.768 49.4212L65.4697 50.8358L70.1849 60.2893L70.5137 52.5612L81.307 48.9622Z" fill="#B794F4"/>
<path d="M71.2516 63.0756L72.1558 66.7577L75.4837 65.4756C75.4837 65.4756 76.0121 70.696 78.9875 68.6163C81.9628 66.5366 85.9727 59.8166 86.6161 59.7825C87.2595 59.7484 69.6286 54.4924 73.6097 61.277C75.5997 64.6693 76.9009 61.8824 75.7001 61.6394C74.4984 61.3965 71.1309 62.8199 71.1309 62.8199L71.2516 63.0756Z" fill="#B794F4"/>
<path d="M57.6538 18.6059C57.6538 18.6059 67.7375 13.4797 67.7155 13.3909C67.7026 13.3387 64.6624 11.7686 64.6624 11.7686L54.7583 16.7267L57.6538 18.6059Z" fill="#A0AEC0"/>
<path d="M54.8363 16.688C54.8363 16.688 55.7267 4.77348 47.5499 12.6039C47.4969 12.6547 45.2212 11.0511 45.2212 11.0511C45.2212 11.0511 48.9025 6.10717 54.1989 7.66C58.2083 8.8356 58.0175 15.504 58.0175 15.504L54.8363 16.688Z" fill="#A0AEC0"/>
</g>
</g>
<defs>
<clipPath id="clip0_582_1920">
<rect width="96" height="89" fill="white"/>
</clipPath>
</defs>
</svg>
