<svg width="1920" height="1080" viewBox="0 0 1920 1080" fill="none" xmlns="http://www.w3.org/2000/svg">
<g clip-path="url(#clip0_552_952)">
<mask id="mask0_552_952" style="mask-type:luminance" maskUnits="userSpaceOnUse" x="-1" y="0" width="1922" height="1081">
<path d="M1920.36 0.00144555H-0.00195312V1080.23H1920.36V0.00144555Z" fill="white"/>
</mask>
<g mask="url(#mask0_552_952)">
<path d="M1096.32 609.19L949.518 753.064C933.012 769.241 932.222 795.202 947.753 811.049L1252.16 1121.65C1267.69 1137.49 1293.66 1137.23 1310.17 1121.05L1456.97 977.176C1473.47 960.999 1474.26 935.038 1458.73 919.191L1154.33 608.593C1138.8 592.746 1112.83 593.013 1096.32 609.19Z" fill="white"/>
<path d="M1372.4 1039.6L1331.28 1045.56L1327.54 1066.11L1323.79 1086.66L1364.91 1080.7L1368.66 1060.15L1372.4 1039.6Z" fill="#DDAFE9"/>
<path d="M1420.69 992.631L1379.57 998.596L1375.83 1019.15L1372.08 1039.7L1413.2 1033.73L1416.95 1013.18L1420.69 992.631Z" fill="#DDAFE9"/>
<path d="M1469.23 945.586L1428.1 951.551L1424.36 972.1L1420.62 992.65L1461.74 986.685L1465.48 966.135L1469.23 945.586Z" fill="#DDAFE9"/>
<path d="M1283.63 1044.94L1235.79 1044.05L1235.35 1067.97L1234.91 1091.89L1282.74 1092.77L1283.19 1068.86L1283.63 1044.94Z" fill="#DDAFE9"/>
<path d="M1332.32 997.993L1284.49 997.108L1284.05 1021.03L1283.6 1044.94L1331.44 1045.83L1331.88 1021.91L1332.32 997.993Z" fill="#DDAFE9"/>
<path d="M1380.68 951.099L1332.85 950.213L1332.4 974.131L1331.96 998.048L1379.8 998.934L1380.24 975.016L1380.68 951.099Z" fill="#DDAFE9"/>
<path d="M1429.32 904.157L1381.48 903.271L1381.04 927.189L1380.6 951.107L1428.43 951.992L1428.88 928.075L1429.32 904.157Z" fill="#DDAFE9"/>
<path d="M1236.69 997.135L1188.85 996.25L1188.41 1020.17L1187.97 1044.09L1235.8 1044.97L1236.25 1021.05L1236.69 997.135Z" fill="#DDAFE9"/>
<path d="M1285.38 950.19L1237.55 949.304L1237.11 973.222L1236.66 997.14L1284.5 998.025L1284.94 974.107L1285.38 950.19Z" fill="#DDAFE9"/>
<path d="M1333.74 903.295L1285.91 902.409L1285.46 926.327L1285.02 950.245L1332.86 951.13L1333.3 927.213L1333.74 903.295Z" fill="#DDAFE9"/>
<path d="M1382.38 856.353L1334.54 855.468L1334.1 879.385L1333.66 903.303L1381.49 904.189L1381.94 880.271L1382.38 856.353Z" fill="#DDAFE9"/>
<path d="M1189.79 948.569L1141.95 947.683L1141.51 971.601L1141.07 995.519L1188.9 996.404L1189.34 972.486L1189.79 948.569Z" fill="#DDAFE9"/>
<path d="M1238.48 901.623L1190.65 900.737L1190.2 924.655L1189.76 948.573L1237.6 949.458L1238.04 925.541L1238.48 901.623Z" fill="#DDAFE9"/>
<path d="M1286.84 854.728L1239.01 853.843L1238.56 877.76L1238.12 901.678L1285.96 902.563L1286.4 878.646L1286.84 854.728Z" fill="#DDAFE9"/>
<path d="M1335.48 807.786L1287.64 806.901L1287.2 830.819L1286.76 854.736L1334.59 855.622L1335.03 831.704L1335.48 807.786Z" fill="#DDAFE9"/>
<path d="M1001.48 754.861L953.644 753.975L953.201 777.893L952.758 801.811L1000.59 802.696L1001.04 778.778L1001.48 754.861Z" fill="#DDAFE9"/>
<path d="M1050.17 707.915L1002.34 707.029L1001.9 730.947L1001.45 754.865L1049.29 755.75L1049.73 731.833L1050.17 707.915Z" fill="#DDAFE9"/>
<path d="M1098.53 661.02L1050.7 660.135L1050.25 684.052L1049.81 707.97L1097.65 708.856L1098.09 684.938L1098.53 661.02Z" fill="#DDAFE9"/>
<path d="M1147.17 614.079L1099.33 613.193L1098.89 637.111L1098.45 661.028L1146.28 661.914L1146.73 637.996L1147.17 614.079Z" fill="#DDAFE9"/>
<path d="M1048.38 803.428L1000.55 802.542L1000.1 826.46L999.66 850.377L1047.5 851.263L1047.94 827.345L1048.38 803.428Z" fill="#DDAFE9"/>
<path d="M1097.08 756.482L1049.24 755.596L1048.8 779.514L1048.36 803.432L1096.19 804.317L1096.63 780.399L1097.08 756.482Z" fill="#DDAFE9"/>
<path d="M1145.44 709.587L1097.6 708.701L1097.16 732.619L1096.71 756.537L1144.55 757.422L1144.99 733.505L1145.44 709.587Z" fill="#DDAFE9"/>
<path d="M1194.07 662.645L1146.24 661.76L1145.79 685.678L1145.35 709.595L1193.19 710.481L1193.63 686.563L1194.07 662.645Z" fill="#DDAFE9"/>
<path d="M1096.44 852.59L1048.6 851.704L1048.16 875.622L1047.72 899.54L1095.55 900.425L1095.99 876.508L1096.44 852.59Z" fill="#DDAFE9"/>
<path d="M1145.13 805.644L1097.3 804.759L1096.85 828.676L1096.41 852.594L1144.25 853.48L1144.69 829.562L1145.13 805.644Z" fill="#DDAFE9"/>
<path d="M1193.49 758.749L1145.65 757.864L1145.21 781.781L1144.77 805.699L1192.6 806.585L1193.05 782.667L1193.49 758.749Z" fill="#DDAFE9"/>
<path d="M1242.13 711.808L1194.29 710.922L1193.85 734.84L1193.41 758.758L1241.24 759.643L1241.68 735.725L1242.13 711.808Z" fill="#DDAFE9"/>
<path d="M1143.34 901.157L1095.5 900.271L1095.06 924.189L1094.62 948.107L1142.45 948.992L1142.9 925.074L1143.34 901.157Z" fill="#DDAFE9"/>
<path d="M1192.03 854.211L1144.2 853.325L1143.76 877.243L1143.31 901.161L1191.15 902.046L1191.59 878.129L1192.03 854.211Z" fill="#DDAFE9"/>
<path d="M1240.39 807.316L1192.56 806.431L1192.11 830.348L1191.67 854.266L1239.51 855.151L1239.95 831.234L1240.39 807.316Z" fill="#DDAFE9"/>
<path d="M1289.03 760.375L1241.19 759.489L1240.75 783.407L1240.31 807.324L1288.14 808.21L1288.59 784.292L1289.03 760.375Z" fill="#DDAFE9"/>
<mask id="mask1_552_952" style="mask-type:luminance" maskUnits="userSpaceOnUse" x="896" y="555" width="615" height="618">
<path d="M896.939 778.159L1123.97 555.653L1510.68 950.224L1283.64 1172.73L896.939 778.159ZM958.951 749.102C942.393 765.33 941.606 791.191 957.186 807.088L1254.96 1110.93C1270.54 1126.82 1296.42 1126.56 1312.97 1110.33L1446.24 979.717C1462.8 963.49 1463.59 937.628 1448.01 921.732L1150.23 617.894C1134.65 601.997 1108.78 602.264 1092.22 618.491L958.951 749.102Z" fill="white"/>
</mask>
<g mask="url(#mask1_552_952)">
<path d="M933.897 748.939L1094.02 592.015C1110.57 575.787 1136.44 575.521 1152.02 591.418L1475.48 921.458C1491.06 937.355 1490.28 963.217 1473.72 979.444L1313.6 1136.37C1297.04 1152.6 1271.17 1152.86 1255.59 1136.97L932.132 806.925C916.553 791.028 917.34 765.167 933.897 748.939Z" fill="#8080FF"/>
</g>
<path d="M1362.22 474.098L1176.52 562.226C1155.64 572.135 1146.42 596.419 1155.94 616.465L1342.4 1009.36C1351.91 1029.41 1376.55 1037.62 1397.43 1027.71L1583.13 939.586C1604.01 929.677 1613.22 905.393 1603.71 885.347L1417.25 492.453C1407.74 472.407 1383.1 464.189 1362.22 474.098Z" fill="white"/>
<path d="M1421.55 999.652L1380.73 991.88L1370.49 1010.08L1360.25 1028.29L1401.07 1036.06L1411.31 1017.86L1421.55 999.652Z" fill="#DDAFE9"/>
<path d="M1482.83 971.014L1442.01 963.241L1431.77 981.446L1421.53 999.651L1462.35 1007.42L1472.59 989.219L1482.83 971.014Z" fill="#DDAFE9"/>
<path d="M1543.79 942.364L1502.98 934.592L1492.73 952.797L1482.49 971.002L1523.31 978.774L1533.55 960.569L1543.79 942.364Z" fill="#DDAFE9"/>
<path d="M1605.02 913.72L1564.2 905.948L1553.96 924.153L1543.72 942.358L1584.54 950.13L1594.78 931.925L1605.02 913.72Z" fill="#DDAFE9"/>
<path d="M1397.17 947.11L1352.24 930.672L1344.02 953.137L1335.8 975.603L1380.73 992.041L1388.95 969.575L1397.17 947.11Z" fill="#DDAFE9"/>
<path d="M1458.51 918.613L1413.58 902.174L1405.36 924.64L1397.14 947.105L1442.07 963.544L1450.29 941.078L1458.51 918.613Z" fill="#DDAFE9"/>
<path d="M1519.52 890.054L1474.59 873.616L1466.37 896.081L1458.15 918.547L1503.08 934.985L1511.3 912.52L1519.52 890.054Z" fill="#DDAFE9"/>
<path d="M1580.81 861.542L1535.88 845.103L1527.66 867.569L1519.44 890.034L1564.37 906.473L1572.59 884.007L1580.81 861.542Z" fill="#DDAFE9"/>
<path d="M1368.38 886.611L1323.45 870.173L1315.23 892.638L1307.01 915.104L1351.95 931.542L1360.16 909.076L1368.38 886.611Z" fill="#DDAFE9"/>
<path d="M1429.73 858.114L1384.8 841.676L1376.58 864.141L1368.36 886.607L1413.29 903.045L1421.51 880.579L1429.73 858.114Z" fill="#DDAFE9"/>
<path d="M1490.74 829.555L1445.81 813.117L1437.59 835.582L1429.37 858.048L1474.3 874.486L1482.52 852.021L1490.74 829.555Z" fill="#DDAFE9"/>
<path d="M1552.02 801.043L1507.09 784.604L1498.87 807.07L1490.65 829.535L1535.58 845.974L1543.8 823.508L1552.02 801.043Z" fill="#DDAFE9"/>
<path d="M1339.89 825.403L1294.96 808.965L1286.74 831.43L1278.52 853.896L1323.45 870.334L1331.67 847.869L1339.89 825.403Z" fill="#DDAFE9"/>
<path d="M1401.23 796.906L1356.3 780.468L1348.08 802.933L1339.86 825.399L1384.79 841.837L1393.01 819.371L1401.23 796.906Z" fill="#DDAFE9"/>
<path d="M1462.24 768.347L1417.31 751.909L1409.09 774.374L1400.87 796.84L1445.8 813.278L1454.02 790.813L1462.24 768.347Z" fill="#DDAFE9"/>
<path d="M1523.53 739.835L1478.59 723.397L1470.38 745.862L1462.16 768.327L1507.09 784.766L1515.31 762.3L1523.53 739.835Z" fill="#DDAFE9"/>
<path d="M1225.05 580.872L1180.12 564.433L1171.9 586.899L1163.68 609.364L1208.61 625.803L1216.83 603.337L1225.05 580.872Z" fill="#DDAFE9"/>
<path d="M1286.4 552.375L1241.47 535.936L1233.25 558.402L1225.03 580.867L1269.96 597.306L1278.18 574.84L1286.4 552.375Z" fill="#DDAFE9"/>
<path d="M1347.41 523.816L1302.47 507.378L1294.25 529.843L1286.04 552.309L1330.97 568.747L1339.19 546.281L1347.41 523.816Z" fill="#DDAFE9"/>
<path d="M1408.69 495.304L1363.76 478.865L1355.54 501.331L1347.32 523.796L1392.25 540.235L1400.47 517.769L1408.69 495.304Z" fill="#DDAFE9"/>
<path d="M1253.55 642.08L1208.62 625.641L1200.4 648.107L1192.18 670.572L1237.11 687.011L1245.33 664.545L1253.55 642.08Z" fill="#DDAFE9"/>
<path d="M1314.89 613.583L1269.96 597.144L1261.74 619.61L1253.52 642.075L1298.46 658.514L1306.67 636.048L1314.89 613.583Z" fill="#DDAFE9"/>
<path d="M1375.9 585.024L1330.97 568.586L1322.75 591.051L1314.53 613.516L1359.46 629.955L1367.68 607.489L1375.9 585.024Z" fill="#DDAFE9"/>
<path d="M1437.19 556.512L1392.26 540.073L1384.04 562.539L1375.82 585.004L1420.75 601.442L1428.97 578.977L1437.19 556.512Z" fill="#DDAFE9"/>
<path d="M1282.94 704.227L1238.01 687.788L1229.79 710.254L1221.57 732.719L1266.51 749.158L1274.72 726.692L1282.94 704.227Z" fill="#DDAFE9"/>
<path d="M1344.29 675.73L1299.36 659.291L1291.14 681.757L1282.92 704.222L1327.85 720.661L1336.07 698.195L1344.29 675.73Z" fill="#DDAFE9"/>
<path d="M1405.3 647.171L1360.37 630.733L1352.15 653.198L1343.93 675.664L1388.86 692.102L1397.08 669.636L1405.3 647.171Z" fill="#DDAFE9"/>
<path d="M1466.58 618.659L1421.65 602.22L1413.43 624.686L1405.21 647.151L1450.14 663.59L1458.36 641.124L1466.58 618.659Z" fill="#DDAFE9"/>
<path d="M1311.44 765.435L1266.51 748.996L1258.29 771.462L1250.07 793.927L1295 810.366L1303.22 787.9L1311.44 765.435Z" fill="#DDAFE9"/>
<path d="M1372.78 736.938L1327.85 720.499L1319.63 742.965L1311.42 765.43L1356.35 781.869L1364.57 759.403L1372.78 736.938Z" fill="#DDAFE9"/>
<path d="M1433.79 708.379L1388.86 691.941L1380.64 714.406L1372.42 736.871L1417.36 753.31L1425.57 730.844L1433.79 708.379Z" fill="#DDAFE9"/>
<path d="M1495.08 679.867L1450.15 663.428L1441.93 685.894L1433.71 708.359L1478.64 724.798L1486.86 702.332L1495.08 679.867Z" fill="#DDAFE9"/>
<mask id="mask2_552_952" style="mask-type:luminance" maskUnits="userSpaceOnUse" x="1118" y="432" width="525" height="636">
<path d="M1118.63 568.801L1405.82 432.507L1642.69 931.624L1355.5 1067.92L1118.63 568.801ZM1186.73 561.558C1165.78 571.498 1156.6 595.688 1166.15 615.797L1348.55 1000.14C1358.09 1020.25 1382.64 1028.43 1403.58 1018.49L1572.16 938.49C1593.1 928.55 1602.28 904.359 1592.74 884.251L1410.34 499.908C1400.8 479.8 1376.25 471.613 1355.31 481.553L1186.73 561.558Z" fill="white"/>
</mask>
<g mask="url(#mask2_552_952)">
<path d="M1163.1 553.233L1365.64 457.11C1386.58 447.17 1411.13 455.357 1420.67 475.465L1618.8 892.953C1628.35 913.062 1619.17 937.253 1598.22 947.192L1395.68 1043.32C1374.74 1053.25 1350.19 1045.07 1340.65 1024.96L1142.52 607.472C1132.97 587.363 1142.15 563.173 1163.1 553.233Z" fill="#8080FF"/>
</g>
<path d="M1628.06 146.363L1562.63 309.89L1602.21 307.718L1596.92 1329.71L1644.76 1329.06L1647.77 304.47L1690.32 302.897L1628.06 146.363Z" fill="#FFD5E5"/>
<path d="M1335.74 351.942L1514.82 415.022L1512.62 375.437L2633.71 365.671L2633.23 317.794L1509.27 329.877L1507.75 287.309L1335.74 351.942Z" fill="#FFEEAA"/>
<path d="M1923.83 202.064L1787.74 364.649L1870.98 362.042L1869.51 1373.48L1970.15 1372.29L1966.8 358.301L2056.29 356.252L1923.83 202.064Z" fill="#2C5AA0"/>
<path d="M1647.45 434.372L1442.87 454.374C1419.87 456.623 1402.98 476.349 1405.13 498.433L1447.45 931.263C1449.61 953.347 1470.01 969.427 1493.01 967.178L1697.59 947.175C1720.59 944.926 1737.48 925.201 1735.33 903.117L1693.01 470.287C1690.85 448.203 1670.45 432.123 1647.45 434.372Z" fill="#FF80E5"/>
<path d="M1525.22 948.947L1489.44 927.805L1473.64 941.464L1457.84 955.123L1493.61 976.264L1509.41 962.606L1525.22 948.947Z" fill="#D5D5FF"/>
<path d="M1592.57 942.763L1556.8 921.621L1541 935.28L1525.19 948.939L1560.96 970.08L1576.77 956.422L1592.57 942.763Z" fill="#D5D5FF"/>
<path d="M1659.64 936.463L1623.87 915.321L1608.06 928.98L1592.26 942.639L1628.03 963.781L1643.83 950.122L1659.64 936.463Z" fill="#D5D5FF"/>
<path d="M1726.95 930.256L1691.17 909.114L1675.37 922.773L1659.57 936.432L1695.34 957.574L1711.14 943.915L1726.95 930.256Z" fill="#D5D5FF"/>
<path d="M1520.07 891.251L1483.37 860.562L1468.03 878.915L1452.68 897.267L1489.39 927.955L1504.73 909.603L1520.07 891.251Z" fill="#D5D5FF"/>
<path d="M1587.44 885.223L1550.74 854.534L1535.4 872.886L1520.05 891.238L1556.76 921.927L1572.1 903.575L1587.44 885.223Z" fill="#D5D5FF"/>
<path d="M1654.52 879.023L1617.82 848.334L1602.47 866.686L1587.13 885.038L1623.83 915.727L1639.18 897.375L1654.52 879.023Z" fill="#D5D5FF"/>
<path d="M1721.84 872.96L1685.14 842.272L1669.79 860.624L1654.45 878.976L1691.15 909.665L1706.5 891.313L1721.84 872.96Z" fill="#D5D5FF"/>
<path d="M1513.49 824.579L1476.79 793.89L1461.44 812.242L1446.1 830.594L1482.8 861.283L1498.15 842.931L1513.49 824.579Z" fill="#D5D5FF"/>
<path d="M1580.86 818.55L1544.16 787.861L1528.81 806.214L1513.47 824.566L1550.17 855.254L1565.52 836.902L1580.86 818.55Z" fill="#D5D5FF"/>
<path d="M1647.94 812.35L1611.23 781.661L1595.89 800.014L1580.54 818.366L1617.25 849.055L1632.59 830.702L1647.94 812.35Z" fill="#D5D5FF"/>
<path d="M1715.26 806.288L1678.56 775.599L1663.21 793.951L1647.87 812.303L1684.57 842.992L1699.92 824.64L1715.26 806.288Z" fill="#D5D5FF"/>
<path d="M1507.42 757.336L1470.71 726.647L1455.37 744.999L1440.02 763.351L1476.73 794.04L1492.07 775.688L1507.42 757.336Z" fill="#D5D5FF"/>
<path d="M1574.79 751.307L1538.08 720.618L1522.74 738.971L1507.39 757.323L1544.1 788.012L1559.44 769.659L1574.79 751.307Z" fill="#D5D5FF"/>
<path d="M1641.86 745.107L1605.16 714.418L1589.81 732.771L1574.47 751.123L1611.17 781.812L1626.52 763.459L1641.86 745.107Z" fill="#D5D5FF"/>
<path d="M1709.18 739.045L1672.48 708.356L1657.14 726.708L1641.79 745.061L1678.5 775.749L1693.84 757.397L1709.18 739.045Z" fill="#D5D5FF"/>
<path d="M1482.22 488.361L1445.52 457.672L1430.17 476.024L1414.83 494.376L1451.53 525.065L1466.88 506.713L1482.22 488.361Z" fill="#D5D5FF"/>
<path d="M1549.59 482.332L1512.89 451.643L1497.54 469.995L1482.2 488.348L1518.9 519.036L1534.25 500.684L1549.59 482.332Z" fill="#D5D5FF"/>
<path d="M1616.67 476.132L1579.96 445.443L1564.62 463.796L1549.27 482.148L1585.98 512.836L1601.32 494.484L1616.67 476.132Z" fill="#D5D5FF"/>
<path d="M1683.99 470.07L1647.28 439.381L1631.94 457.733L1616.6 476.085L1653.3 506.774L1668.64 488.422L1683.99 470.07Z" fill="#D5D5FF"/>
<path d="M1488.29 555.603L1451.59 524.915L1436.25 543.267L1420.9 561.619L1457.61 592.308L1472.95 573.956L1488.29 555.603Z" fill="#D5D5FF"/>
<path d="M1555.67 549.575L1518.96 518.886L1503.62 537.238L1488.27 555.591L1524.98 586.279L1540.32 567.927L1555.67 549.575Z" fill="#D5D5FF"/>
<path d="M1622.74 543.375L1586.04 512.686L1570.69 531.038L1555.35 549.391L1592.05 580.079L1607.4 561.727L1622.74 543.375Z" fill="#D5D5FF"/>
<path d="M1690.06 537.313L1653.36 506.624L1638.02 524.976L1622.67 543.328L1659.38 574.017L1674.72 555.665L1690.06 537.313Z" fill="#D5D5FF"/>
<path d="M1494.89 624.034L1458.19 593.345L1442.85 611.697L1427.5 630.049L1464.21 660.738L1479.55 642.386L1494.89 624.034Z" fill="#D5D5FF"/>
<path d="M1562.27 618.005L1525.56 587.316L1510.22 605.668L1494.87 624.021L1531.58 654.709L1546.92 636.357L1562.27 618.005Z" fill="#D5D5FF"/>
<path d="M1629.34 611.805L1592.64 581.116L1577.29 599.468L1561.95 617.821L1598.65 648.509L1614 630.157L1629.34 611.805Z" fill="#D5D5FF"/>
<path d="M1696.66 605.743L1659.96 575.054L1644.61 593.406L1629.27 611.758L1665.97 642.447L1681.32 624.095L1696.66 605.743Z" fill="#D5D5FF"/>
<path d="M1500.97 691.276L1464.27 660.588L1448.92 678.94L1433.58 697.292L1470.28 727.981L1485.63 709.629L1500.97 691.276Z" fill="#D5D5FF"/>
<path d="M1568.34 685.248L1531.64 654.559L1516.29 672.911L1500.95 691.264L1537.65 721.952L1553 703.6L1568.34 685.248Z" fill="#D5D5FF"/>
<path d="M1635.42 679.048L1598.71 648.359L1583.37 666.711L1568.02 685.064L1604.73 715.752L1620.07 697.4L1635.42 679.048Z" fill="#D5D5FF"/>
<path d="M1702.74 672.986L1666.03 642.297L1650.69 660.649L1635.35 679.001L1672.05 709.69L1687.39 691.338L1702.74 672.986Z" fill="#D5D5FF"/>
<mask id="mask3_552_952" style="mask-type:luminance" maskUnits="userSpaceOnUse" x="1386" y="410" width="371" height="581">
<path d="M1386.18 440.948L1702.56 410.014L1756.32 959.864L1439.94 990.798L1386.18 440.948ZM1452.71 457.204C1429.63 459.46 1412.8 479.111 1414.97 501.263L1456.36 924.672C1458.53 946.825 1478.85 962.843 1501.92 960.587L1687.64 942.428C1710.71 940.172 1727.54 920.522 1725.38 898.37L1683.98 474.961C1681.81 452.808 1661.49 436.79 1638.42 439.046L1452.71 457.204Z" fill="white"/>
</mask>
<g mask="url(#mask3_552_952)">
<path d="M1433.29 441.366L1656.42 419.549C1679.5 417.293 1699.82 433.311 1701.98 455.464L1746.95 915.388C1749.12 937.54 1732.28 957.19 1709.21 959.446L1486.08 981.263C1463.01 983.519 1442.69 967.501 1440.52 945.348L1395.55 485.425C1393.39 463.272 1410.22 443.622 1433.29 441.366Z" fill="#FFE680"/>
</g>
<path d="M1875.78 489.829L1672.99 456.248C1650.19 452.472 1628.77 467.157 1625.15 489.049L1554.1 918.099C1550.47 939.99 1566.02 960.798 1588.82 964.573L1791.6 998.155C1814.4 1001.93 1835.83 987.245 1839.45 965.354L1910.5 536.304C1914.13 514.412 1898.58 493.605 1875.78 489.829Z" fill="white"/>
<path d="M1624.64 955.291L1595.55 925.618L1576.75 934.725L1557.96 943.832L1587.04 973.506L1605.84 964.398L1624.64 955.291Z" fill="#DDAFE9"/>
<path d="M1691.3 966.735L1662.21 937.062L1643.42 946.17L1624.62 955.277L1653.71 984.95L1672.5 975.843L1691.3 966.735Z" fill="#DDAFE9"/>
<path d="M1757.72 977.994L1728.63 948.32L1709.83 957.428L1691.03 966.535L1720.12 996.208L1738.92 987.101L1757.72 977.994Z" fill="#DDAFE9"/>
<path d="M1824.34 989.403L1795.25 959.73L1776.46 968.838L1757.66 977.945L1786.74 1007.62L1805.54 998.511L1824.34 989.403Z" fill="#DDAFE9"/>
<path d="M1634.59 898.228L1607.07 859.091L1587.5 872.851L1567.94 886.611L1595.46 925.748L1615.02 911.988L1634.59 898.228Z" fill="#DDAFE9"/>
<path d="M1701.23 909.827L1673.71 870.69L1654.14 884.45L1634.57 898.21L1662.09 937.346L1681.66 923.586L1701.23 909.827Z" fill="#DDAFE9"/>
<path d="M1767.63 921.184L1740.11 882.047L1720.54 895.807L1700.97 909.567L1728.49 948.703L1748.06 934.943L1767.63 921.184Z" fill="#DDAFE9"/>
<path d="M1834.23 932.737L1806.71 893.601L1787.14 907.36L1767.57 921.12L1795.09 960.257L1814.66 946.497L1834.23 932.737Z" fill="#DDAFE9"/>
<path d="M1645.47 832.121L1617.95 792.984L1598.39 806.744L1578.82 820.504L1606.34 859.64L1625.91 845.881L1645.47 832.121Z" fill="#DDAFE9"/>
<path d="M1712.11 843.72L1684.59 804.583L1665.02 818.343L1645.46 832.103L1672.98 871.239L1692.54 857.479L1712.11 843.72Z" fill="#DDAFE9"/>
<path d="M1778.51 855.077L1750.99 815.94L1731.42 829.7L1711.85 843.46L1739.37 882.596L1758.94 868.836L1778.51 855.077Z" fill="#DDAFE9"/>
<path d="M1845.11 866.63L1817.59 827.493L1798.02 841.253L1778.45 855.013L1805.97 894.15L1825.54 880.39L1845.11 866.63Z" fill="#DDAFE9"/>
<path d="M1656.99 765.594L1629.48 726.458L1609.91 740.217L1590.34 753.977L1617.86 793.114L1637.43 779.354L1656.99 765.594Z" fill="#DDAFE9"/>
<path d="M1723.63 777.193L1696.11 738.056L1676.54 751.816L1656.98 765.576L1684.5 804.713L1704.06 790.953L1723.63 777.193Z" fill="#DDAFE9"/>
<path d="M1790.03 788.55L1762.51 749.413L1742.94 763.173L1723.37 776.933L1750.89 816.07L1770.46 802.31L1790.03 788.55Z" fill="#DDAFE9"/>
<path d="M1856.63 800.103L1829.11 760.967L1809.54 774.727L1789.97 788.487L1817.49 827.623L1837.06 813.863L1856.63 800.103Z" fill="#DDAFE9"/>
<path d="M1702.21 499.253L1674.69 460.116L1655.13 473.876L1635.56 487.636L1663.08 526.773L1682.65 513.013L1702.21 499.253Z" fill="#DDAFE9"/>
<path d="M1768.85 510.852L1741.33 471.715L1721.76 485.475L1702.2 499.235L1729.72 538.371L1749.28 524.612L1768.85 510.852Z" fill="#DDAFE9"/>
<path d="M1835.25 522.209L1807.73 483.072L1788.16 496.832L1768.59 510.592L1796.11 549.728L1815.68 535.969L1835.25 522.209Z" fill="#DDAFE9"/>
<path d="M1901.85 533.762L1874.33 494.626L1854.76 508.385L1835.19 522.145L1862.71 561.282L1882.28 547.522L1901.85 533.762Z" fill="#DDAFE9"/>
<path d="M1690.69 565.78L1663.17 526.643L1643.61 540.403L1624.04 554.163L1651.56 593.299L1671.12 579.539L1690.69 565.78Z" fill="#DDAFE9"/>
<path d="M1757.33 577.378L1729.81 538.242L1710.24 552.002L1690.67 565.761L1718.19 604.898L1737.76 591.138L1757.33 577.378Z" fill="#DDAFE9"/>
<path d="M1823.73 588.735L1796.21 549.599L1776.64 563.359L1757.07 577.118L1784.59 616.255L1804.16 602.495L1823.73 588.735Z" fill="#DDAFE9"/>
<path d="M1890.33 600.289L1862.81 561.152L1843.24 574.912L1823.67 588.672L1851.19 627.809L1870.76 614.049L1890.33 600.289Z" fill="#DDAFE9"/>
<path d="M1679.37 633.589L1651.85 594.452L1632.28 608.212L1612.72 621.972L1640.24 661.108L1659.8 647.348L1679.37 633.589Z" fill="#DDAFE9"/>
<path d="M1746.01 645.187L1718.49 606.051L1698.92 619.811L1679.35 633.57L1706.87 672.707L1726.44 658.947L1746.01 645.187Z" fill="#DDAFE9"/>
<path d="M1812.41 656.544L1784.89 617.408L1765.32 631.168L1745.75 644.927L1773.27 684.064L1792.84 670.304L1812.41 656.544Z" fill="#DDAFE9"/>
<path d="M1879.01 668.098L1851.49 628.961L1831.92 642.721L1812.35 656.481L1839.87 695.618L1859.44 681.858L1879.01 668.098Z" fill="#DDAFE9"/>
<path d="M1667.85 700.115L1640.33 660.979L1620.76 674.738L1601.19 688.498L1628.71 727.635L1648.28 713.875L1667.85 700.115Z" fill="#DDAFE9"/>
<path d="M1734.49 711.714L1706.97 672.577L1687.4 686.337L1667.83 700.097L1695.35 739.234L1714.92 725.474L1734.49 711.714Z" fill="#DDAFE9"/>
<path d="M1800.89 723.071L1773.37 683.934L1753.8 697.694L1734.23 711.454L1761.75 750.591L1781.32 736.831L1800.89 723.071Z" fill="#DDAFE9"/>
<path d="M1867.49 734.625L1839.97 695.488L1820.4 709.248L1800.83 723.008L1828.35 762.144L1847.92 748.384L1867.49 734.625Z" fill="#DDAFE9"/>
<mask id="mask4_552_952" style="mask-type:luminance" maskUnits="userSpaceOnUse" x="1531" y="428" width="405" height="598">
<path d="M1621.7 428.618L1935.32 480.553L1845.06 1025.6L1531.44 973.666L1621.7 428.618ZM1681.76 461.524C1658.89 457.736 1637.55 472.366 1633.91 494.325L1564.41 914.037C1560.77 935.996 1576.26 956.723 1599.13 960.511L1783.22 990.997C1806.09 994.784 1827.44 980.155 1831.07 958.196L1900.58 538.484C1904.21 516.525 1888.73 495.798 1865.85 492.01L1681.76 461.524Z" fill="white"/>
</mask>
<g mask="url(#mask4_552_952)">
<path d="M1667.1 441.204L1888.29 477.832C1911.16 481.619 1926.64 502.347 1923.01 524.306L1847.51 980.214C1843.87 1002.17 1822.53 1016.8 1799.66 1013.01L1578.48 976.387C1555.61 972.599 1540.12 951.872 1543.76 929.913L1619.25 474.005C1622.89 452.046 1644.23 437.416 1667.1 441.204Z" fill="#8080FF"/>
</g>
<path d="M639.46 1031.73L874.968 1280.41L873.679 1127.71L2364.7 1124.21L2366.03 939.587L871.103 951.936L870.829 787.752L639.46 1031.73Z" fill="#2C5AA0"/>
<path d="M1048.32 947.617L1283.83 1196.3L1282.54 1043.6L2773.57 1040.1L2774.9 855.476L1279.97 867.825L1279.69 703.641L1048.32 947.617Z" fill="#8080FF"/>
<path d="M1362.34 1037.82L1541.42 1168.25L1539.22 1087.46L2660.32 1078.27L2659.83 980.582L1535.88 994.464L1534.35 907.592L1362.34 1037.82Z" fill="#D4AA00"/>
<path d="M-32.9263 1089.26L237.086 1222.67L235.059 1140.07L1938.81 1131.04L1939.66 1031.15L231.479 1044.99L230.571 956.165L-32.9263 1089.26Z" fill="#D5D5FF"/>
</g>
</g>
<defs>
<clipPath id="clip0_552_952">
<rect width="1920" height="1080" fill="white"/>
</clipPath>
</defs>
</svg>
