<svg width="434" height="600" viewBox="0 0 434 600" fill="none" xmlns="http://www.w3.org/2000/svg">
<g clip-path="url(#clip0_561_1571)">
<path d="M87.5689 111.973H37.0581V428.439H87.5689V111.973Z" fill="#C6AFE9"/>
<path d="M8.95801 111.763L8.95801 142.594H87.5618V111.763H8.95801Z" fill="#C6AFE9"/>
<path d="M353.638 429.118V401.932H37.172V429.118H353.638Z" fill="#C6AFE9"/>
<path d="M249.151 204.072H198.64V520.537H249.151V204.072Z" fill="#FFAACC"/>
<path d="M316.466 304.875V254.364L-9.15527e-05 254.364V304.875H316.466Z" fill="#8D5FD3"/>
<path d="M327.536 497.162C335.387 497.162 341.75 491.077 341.75 483.569C341.75 476.062 335.387 469.977 327.536 469.977H126.967C119.117 469.977 112.754 476.062 112.754 483.569C112.754 491.077 119.117 497.162 126.967 497.162H327.536Z" fill="#FFCC00"/>
<path d="M168.358 216.153H279.177L225.678 151.69L168.358 216.153Z" fill="#FFAACC"/>
<path d="M302.234 222.768V333.586L366.696 280.088L302.234 222.768Z" fill="#8D5FD3"/>
<path d="M302.234 222.768V333.586L366.696 280.088L302.234 222.768Z" fill="#8D5FD3"/>
<path d="M349.792 386.276V446.071L401.134 417.205L349.792 386.276Z" fill="#C6AFE9"/>
<path d="M327.277 548.521H267.482L296.348 599.863L327.277 548.521Z" fill="#AFC6E9"/>
<path d="M309.98 385.226H282.148V561.012H309.98V385.226Z" fill="#AFC6E9"/>
<path d="M138.595 108.569C129.101 108.569 121.398 116.272 121.398 125.766C121.398 135.261 129.101 142.963 138.595 142.963C148.089 142.963 155.792 135.261 155.792 125.766C155.792 116.272 148.089 108.569 138.595 108.569ZM138.595 134.365C133.848 134.365 129.996 130.513 129.996 125.766C129.996 121.019 133.848 117.168 138.595 117.168C143.342 117.168 147.193 121.019 147.193 125.766C147.193 130.513 143.342 134.365 138.595 134.365ZM138.595 91.3721C114.053 91.3721 94.1689 111.256 94.1689 135.798C94.1689 160.34 114.053 180.224 138.595 180.224C163.137 180.224 183.021 160.34 183.021 135.798C183.021 111.256 163.137 91.3721 138.595 91.3721ZM138.595 171.625C129.692 171.625 121.559 168.347 115.289 162.955C117.958 158.835 122.526 156.041 127.757 155.879C131.483 157.026 135.03 157.599 138.595 157.599C142.16 157.599 145.706 157.044 149.432 155.879C154.663 156.058 159.231 158.835 161.9 162.955C155.631 168.347 147.498 171.625 138.595 171.625ZM167.741 156.56C163.369 150.935 156.616 147.263 148.913 147.263C147.086 147.263 144.255 148.982 138.595 148.982C132.952 148.982 130.104 147.263 128.277 147.263C120.592 147.263 113.838 150.935 109.449 156.56C105.257 150.702 102.768 143.537 102.768 135.798C102.768 116.039 118.836 99.9706 138.595 99.9706C158.354 99.9706 174.422 116.039 174.422 135.798C174.422 143.537 171.932 150.702 167.741 156.56Z" fill="#161650"/>
<path d="M391.594 317.686C382.541 317.686 375.195 325.031 375.195 334.085C375.195 343.138 382.541 350.484 391.594 350.484C400.648 350.484 407.993 343.138 407.993 334.085C407.993 325.031 400.648 317.686 391.594 317.686ZM391.594 342.284C387.067 342.284 383.395 338.612 383.395 334.085C383.395 329.558 387.067 325.885 391.594 325.885C396.121 325.885 399.794 329.558 399.794 334.085C399.794 338.612 396.121 342.284 391.594 342.284ZM391.594 301.287C368.191 301.287 349.23 320.248 349.23 343.651C349.23 367.054 368.191 386.015 391.594 386.015C414.997 386.015 433.958 367.054 433.958 343.651C433.958 320.248 414.997 301.287 391.594 301.287ZM391.594 377.816C383.104 377.816 375.349 374.69 369.37 369.548C371.915 365.619 376.271 362.954 381.259 362.8C384.813 363.893 388.195 364.44 391.594 364.44C394.994 364.44 398.376 363.911 401.929 362.8C406.917 362.971 411.273 365.619 413.818 369.548C407.839 374.69 400.084 377.816 391.594 377.816ZM419.387 363.449C415.219 358.085 408.779 354.584 401.434 354.584C399.691 354.584 396.992 356.223 391.594 356.223C386.213 356.223 383.497 354.584 381.755 354.584C374.426 354.584 367.986 358.085 363.801 363.449C359.804 357.863 357.43 351.03 357.43 343.651C357.43 324.809 372.752 309.486 391.594 309.486C410.436 309.486 425.759 324.809 425.759 343.651C425.759 351.03 423.384 357.863 419.387 363.449Z" fill="#502D16"/>
</g>
<defs>
<clipPath id="clip0_561_1571">
<rect width="433.958" height="599.863" fill="white"/>
</clipPath>
</defs>
</svg>
