<svg viewBox="0 0 681 1043" fill="none" xmlns="http://www.w3.org/2000/svg">
<g clip-path="url(#clip0_556_1402)">
<path d="M-390.225 158.126C-390.225 158.126 461.424 406.975 385.292 904.29C376.226 963.511 571.998 848.254 571.998 848.254C571.998 848.254 553.245 290.122 -269.135 65.2828" fill="#553C9A"/>
<path d="M407.351 805.532C407.351 805.532 292.74 820.961 288.218 818.744C267.634 808.654 463.696 1014.76 484.422 1023.24C489.656 1025.38 648.909 711.515 661.441 699.028C685.62 674.933 532.803 770.134 532.803 770.134L407.351 805.532Z" fill="#553C9A"/>
<path d="M-361.511 135.976C-361.511 135.976 490.139 384.826 414.006 882.141C404.94 941.362 600.713 826.105 600.713 826.105C600.713 826.105 581.959 267.973 -240.421 43.1335" fill="#9F7AEA"/>
<path d="M663.783 695.263L681 715.725L634.934 744.205L630.702 737.044L663.783 695.263Z" fill="#553C9A"/>
<path d="M424.263 825.284C424.263 825.284 309.652 840.713 305.13 838.496C284.546 828.405 480.609 1034.51 501.334 1042.99C506.568 1045.13 666.288 725.975 680.959 715.742C682.363 714.762 549.715 789.886 549.715 789.886L424.263 825.284Z" fill="#9F7AEA"/>
<path d="M323.34 8.82349L504.953 80.3068C504.953 80.3068 -247.381 383.184 -117.858 819.95C-100.099 879.838 -321.321 760.558 -321.321 760.558C-321.321 760.558 -341.97 274.198 323.34 8.82349Z" fill="#FFD700"/>
<path d="M307.448 0L483.873 71.8939C483.873 71.8939 -302.875 393.599 -144.281 821.845C-122.725 880.049 -355.006 751.735 -355.006 751.735C-355.006 751.735 -357.861 265.374 307.448 0Z" fill="#F0E68C"/>
<path d="M351.515 117.631L256.44 94.1776L230.411 40.5916L316.277 58.2136L351.515 117.631Z" fill="#DAA520"/>
<path d="M503.951 568.815L515.993 592.461L421.898 652.171L434.63 682.951L415.266 697.931C415.266 697.931 401.421 643.664 394.774 637.281" fill="#553C9A"/>
<path d="M513.741 586.903L496.749 552.567L458.78 550.308L479.082 587.778L414.671 634.778L393.918 591.398L373.578 605.248L415.309 697.803L418.215 622.14L513.741 586.903Z" fill="#553C9A"/>
<path d="M424.75 725.082L432.757 761.132L462.21 748.579C462.21 748.579 466.879 799.69 493.213 779.329C519.547 758.967 555.038 693.174 560.732 692.84C566.425 692.506 410.386 641.046 445.617 707.472C463.232 740.684 474.749 713.399 464.118 711.021C453.486 708.643 423.682 722.579 423.682 722.579L424.75 725.082Z" fill="#553C9A"/>
<path d="M218.347 196.016C218.347 196.016 302.622 146.848 302.438 145.997C302.33 145.496 276.922 130.437 276.922 130.437L194.148 177.991L218.347 196.016Z" fill="#DAA520"/>
<path d="M194.803 177.618C194.803 177.618 202.244 63.3437 133.907 138.447C133.464 138.934 114.444 123.554 114.444 123.554C114.444 123.554 145.211 76.1355 189.475 91.0293C222.984 102.304 221.39 166.262 221.39 166.262L194.803 177.618Z" fill="#DAA520"/>
<path d="M323.34 8.82349L504.953 80.3068C504.953 80.3068 -247.381 383.184 -117.858 819.95C-100.099 879.838 -321.321 760.558 -321.321 760.558C-321.321 760.558 -341.97 274.198 323.34 8.82349Z" fill="#FFD700"/>
<path d="M307.448 0L483.873 71.8939C483.873 71.8939 -302.875 393.599 -144.281 821.845C-122.725 880.049 -355.006 751.735 -355.006 751.735C-355.006 751.735 -357.861 265.374 307.448 0Z" fill="#F0E68C"/>
<path d="M351.515 117.631L256.44 94.1776L230.411 40.5916L316.277 58.2136L351.515 117.631Z" fill="#DAA520"/>
<path d="M503.951 568.815L515.993 592.461L421.898 652.171L434.63 682.951L415.266 697.931C415.266 697.931 401.421 643.664 394.774 637.281" fill="#553C9A"/>
<path d="M513.741 586.903L496.749 552.567L458.78 550.308L479.082 587.778L414.671 634.778L393.918 591.398L373.578 605.248L415.309 697.803L418.215 622.14L513.741 586.903Z" fill="#553C9A"/>
<path d="M424.75 725.082L432.757 761.132L462.21 748.579C462.21 748.579 466.879 799.69 493.213 779.329C519.547 758.967 555.038 693.174 560.732 692.84C566.425 692.506 410.386 641.046 445.617 707.472C463.232 740.684 474.749 713.399 464.118 711.021C453.486 708.643 423.682 722.579 423.682 722.579L424.75 725.082Z" fill="#553C9A"/>
<path d="M218.347 196.016C218.347 196.016 302.622 146.848 302.438 145.997C302.33 145.496 276.922 130.437 276.922 130.437L194.148 177.991L218.347 196.016Z" fill="#DAA520"/>
<path d="M194.803 177.618C194.803 177.618 202.244 63.3437 133.907 138.447C133.464 138.934 114.444 123.554 114.444 123.554C114.444 123.554 145.211 76.1355 189.475 91.0293C222.984 102.304 221.39 166.262 221.39 166.262L194.803 177.618Z" fill="#DAA520"/>
</g>
<defs>
<clipPath id="clip0_556_1402">
<rect width="1120" height="1043" fill="white" transform="translate(-439)"/>
</clipPath>
</defs>
</svg>
