<svg  viewBox="0 0 301 1080" fill="none" xmlns="http://www.w3.org/2000/svg">
<g clip-path="url(#clip0_279_497)">
<mask id="mask0_279_497" style="mask-type:luminance" maskUnits="userSpaceOnUse" x="-494" y="0" width="795" height="1080">
<path d="M301 0H-493.789V1080H301V0Z" fill="white"/>
</mask>
<g mask="url(#mask0_279_497)">
<path d="M311.134 188.007L196.468 147.902L97.0453 215.839L101.346 98.7626L3.31335 28.9895L120.637 -3.26256L159.472 -114.322L227.681 -17.1786L349.715 -16.0438L274.547 76.246L311.134 188.007Z" fill="#5555FF" stroke="#FFD5D5" stroke-width="2.89134" stroke-linecap="round" stroke-linejoin="round"/>
<path d="M327.432 172.042L208.471 145.894L118.59 225.14L107.736 108.455L1.4474 50.888L113.7 4.92112L137.89 -109.903L218.121 -21.6278L339.36 -35.0261L276.692 65.498L327.432 172.042Z" fill="#AACCFF" stroke="#FFD5D5" stroke-width="2.89134" stroke-linecap="round" stroke-linejoin="round"/>
<path d="M248.365 384.18H41.0812V686.848H248.365V384.18Z" fill="white"/>
<path d="M304.096 421.101L203.458 333.908C203.458 333.908 188.491 322.514 206.554 306.661C224.618 290.807 307.709 229.872 307.709 229.872L308.944 354.053" fill="#F2F2F2"/>
<path d="M229.779 345.427L211.715 316.445L216.489 310.5L249.39 322.761L246.423 326.229L230.94 321.275L226.037 326.601L233.004 340.101L229.779 345.427Z" fill="#FF0066"/>
<path d="M223.914 322.919L227.061 319.46L218.577 316.307L223.914 322.919Z" fill="#F2F2F2"/>
<path d="M305.477 313.417C305.477 313.417 269.936 325.361 322.447 343.019C379.741 362.286 327.191 328.481 327.191 328.481" fill="#D40055"/>
<path d="M120.637 789.138C120.637 789.138 62.9773 734.49 105.31 698.058C147.642 661.625 175.377 707.166 159.32 702.261C143.263 697.357 111.149 743.598 137.424 773.725C163.7 803.851 120.637 789.138 120.637 789.138Z" fill="#3771C8"/>
<path d="M140.741 220.785C140.741 220.785 188.912 272.631 173.585 290.847C158.258 309.063 236.354 266.325 206.429 245.306C176.505 224.288 156.798 218.683 140.741 220.785Z" fill="#FFD42A"/>
<path d="M196.748 1014.61C201.406 1018.88 193.047 1022.74 189.351 1022.04C179.335 1020.13 177.443 1007.91 181.265 1000.4C188.102 986.972 206.636 985.012 218.941 992.312C236.998 1003.02 239.22 1027.03 227.714 1043.01C212.379 1064.3 180.695 1066.6 159.761 1051.76C133.419 1033.09 130.866 996.188 150.3 972C173.837 942.705 219.081 940.1 248.53 962.587C283.235 989.088 286.108 1039.07 258.68 1071.41C227.014 1108.75 168.101 1111.66 130.172 1081.49C87.0745 1047.2 83.886 984.069 119.334 943.596C159.101 898.192 231.727 894.981 278.12 932.862C329.624 974.918 333.127 1051.22 289.646 1099.82" stroke="black" stroke-width="0.999999"/>
<path d="M312.593 524.304C313.252 527.676 308.183 526.82 306.754 525.355C302.883 521.384 306.15 515.29 310.404 513.094C318.013 509.165 327.026 514.039 330.11 521.151C334.636 531.589 327.544 543.098 316.972 546.724C302.882 551.557 287.83 542.748 283.398 529.558C277.822 512.961 289.112 495.537 306.024 490.674C326.508 484.784 347.776 497.665 353.466 516.947C360.172 539.671 344.616 563.089 321.352 569.143C294.493 576.134 266.962 559.144 260.043 533.762C252.18 504.922 272.026 475.482 301.645 468.254C334.874 460.146 368.686 481.26 376.822 512.744C385.854 547.696 361.708 583.172 325.731 591.563" stroke="black" stroke-width="0.999999"/>
<path d="M273.18 -26.3831C277.352 -18.936 264.781 -17.3109 260.286 -19.7272C248.105 -26.2754 251.032 -42.9289 259.313 -51.1383C274.124 -65.823 299.084 -60.8413 311.863 -46.3508C330.617 -25.0853 322.92 7.02969 300.915 23.1273C271.587 44.583 229.382 34.6925 208.708 6.89636C182.693 -28.0822 195.645 -77.0974 231.578 -100.649C275.097 -129.173 335.069 -114.176 363.441 -72.9743C396.876 -24.419 378.571 41.7336 328.65 72.6378C271.015 108.318 193.138 88.1635 157.131 33.5199C116.217 -28.5696 139.909 -111.943 203.842 -150.159C275.566 -193.033 371.406 -167.699 415.018 -99.5979C463.437 -23.9928 434.343 76.6393 356.386 122.148" stroke="black" stroke-width="0.999999"/>
<path d="M324.271 823.469L222.819 714.172L330.84 679.141" fill="#892CA0"/>
<path d="M354.926 830.475L238.876 689.65L350.547 667.23" fill="#AB37C8"/>
<path d="M341.788 823.469C338.869 815.061 275.37 658.122 275.37 658.122L370.983 663.027" fill="#F6D5FF"/>
<path d="M110.243 1034.76C110.243 1045.06 104.966 1054.96 95.5189 1062.38C86.0715 1069.81 73.1873 1074.18 59.5675 1074.59C45.9477 1074.99 32.6502 1071.39 22.4627 1064.55C12.2753 1057.7 5.98913 1048.15 4.92224 1037.88C3.85535 1027.61 8.09055 1017.42 16.7399 1009.46C25.3893 1001.5 37.781 996.379 51.3172 995.171C64.8534 993.963 78.4828 996.763 89.3478 1002.98C100.213 1009.2 107.47 1018.36 109.597 1028.54" fill="#FF2A2A"/>
<path d="M189.523 1020.97C189.523 1030.04 184.885 1038.76 176.581 1045.29C168.277 1051.83 156.952 1055.68 144.98 1056.04C133.009 1056.39 121.32 1053.23 112.366 1047.2C103.411 1041.17 97.8858 1032.76 96.9481 1023.72C96.0103 1014.67 99.7329 1005.71 107.336 998.697C114.938 991.687 125.83 987.177 137.728 986.114C149.626 985.05 161.606 987.515 171.156 992.992C180.707 998.469 187.085 1006.53 188.955 1015.49" fill="#FF2A2A"/>
<path d="M186.086 1032.35L125.696 1152.33L27.6038 1068.1" fill="#FF2A2A"/>
<path d="M86.7278 1038.52L129.727 1072.11L133.758 1024.48L86.7278 1038.52Z" fill="#FF2A2A"/>
<path d="M273.18 864.805L235.124 847.553L198.744 867.867L204.076 827.793L172.709 800.858L214.061 793.342L231.054 756.382L251.279 791.811L293.149 795.903L264.296 825.316L273.18 864.805Z" fill="#FFEEAA"/>
<path d="M137.424 343.544L130.955 337.27L121.903 338.828L126.121 330.983L121.78 323.201L130.855 324.627L137.224 318.259L138.616 326.985L146.893 330.832L138.677 334.799L137.424 343.544Z" fill="#5555FF"/>
<path d="M342.288 624.22L278.554 619.195L238.109 666.744L223.393 607.006L163.785 584.776L218.424 552.881L222.029 491.593L270.514 531.619L332.35 515.971L307.676 572.603L342.288 624.22Z" fill="#FFE680"/>
</g>
</g>
<defs>
<clipPath id="clip0_279_497">
<rect width="301" height="1080" fill="white"/>
</clipPath>
</defs>
</svg>
