<svg viewBox="0 0 235 1080" fill="none" xmlns="http://www.w3.org/2000/svg">
<g clip-path="url(#clip0_280_526)">
<mask id="mask0_280_526" style="mask-type:luminance" maskUnits="userSpaceOnUse" x="0" y="0" width="522" height="1080">
<path d="M521.185 0H0V1080H521.185V0Z" fill="white"/>
</mask>
<g mask="url(#mask0_280_526)">
<path d="M-12.6411 127.96C-9.13746 120.954 19.6905 78.5476 19.6905 78.5476L61.2102 103.127C61.2102 103.127 49.1565 41.1429 92.428 62.2186C135.7 83.2942 126.22 179.373 135.333 180.878C144.446 182.383 56.1281 201.173 37.7131 207.51C19.298 213.847 -8.65141 171.545 16.517 157.083C41.6854 142.621 -12.6411 127.96 -12.6411 127.96Z" fill="#214478"/>
<path d="M67.9807 745.101L-21.1097 702.283L-108.284 748.608L-93.4815 653.869L-166.219 588.431L-67.9805 572.697L-25.7608 485.93L20.1517 570.944L118.983 582.757L49.1194 651.033L67.9807 745.101Z" fill="#AA87DE"/>
<path d="M89.4592 1132.2L43.0897 1067.05L-38.9893 1066.86L11.0935 1004.31L-14.0829 929.156L63.2394 955.645L129.759 909.389L127.464 988.315L193.751 1034.88L115.01 1057.17L89.4592 1132.2Z" fill="#E3D7F4"/>
<path d="M67.9805 940.294C67.9805 940.294 23.6901 860.037 43.2603 848.147C62.8305 836.257 46.3503 894.716 80.3406 931.376C114.331 968.037 254.412 926.422 217.332 881.835C180.251 837.248 153.471 846.165 168.921 823.376C184.372 800.587 183.342 821.395 183.342 827.339C183.342 833.284 232.782 864 234.842 886.789C236.902 909.578 219.392 996.771 148.321 968.037C77.2506 939.303 67.9805 940.294 67.9805 940.294Z" fill="#FFDD55"/>
<path d="M2 183C2 183 26.7631 255.864 18.0232 274.781C9.28326 293.698 36.2313 290.195 36.2313 290.195C36.2313 290.195 56.6245 250.259 42.7863 229.241" fill="#FFDD55"/>
<path d="M79.2626 480.625C67.6094 584.317 -21.2464 647.372 69.066 596.928C159.378 546.483 236.581 410.563 175.402 538.076" fill="#AACCFF"/>
<path d="M65.9206 428.037C65.9206 430.854 65.0446 433.561 63.4763 435.591C61.9081 437.622 59.7693 438.817 57.5084 438.928C55.2475 439.038 53.0401 438.054 51.349 436.183C49.6579 434.312 48.6144 431.698 48.4373 428.89C48.2602 426.082 48.9632 423.297 50.399 421.121C51.8348 418.944 53.8919 417.543 56.1389 417.213C58.3859 416.883 60.6483 417.648 62.4519 419.349C64.2555 421.05 65.4602 423.554 65.8133 426.336" fill="#7137C8"/>
<path d="M47.2161 70.4124L2.01875 28.5723L-59.4342 40.6687L-32.0351 -13.6107L-62.9844 -66.0946L-0.853386 -57.801L41.4719 -102.334L52.4718 -42.9292L109.58 -17.9683L54.2469 10.4525L47.2161 70.4124Z" fill="#7137C8"/>
<path d="M-138.021 713.395C-128.519 720.449 -143.218 729.197 -150.21 728.587C-169.156 726.936 -175.156 704.607 -169.608 689.945C-159.683 663.717 -125.745 656.583 -101.456 667.817C-65.8104 684.303 -56.7921 728.459 -74.8473 760.294C-98.9122 802.725 -157.148 812.96 -198.963 789.358C-251.583 759.657 -263.85 691.621 -232.782 643.046C-195.154 584.215 -111.858 570.846 -52.702 607.046C17.0108 649.707 32.5405 741.971 -11.6735 807.193C-62.7203 882.494 -171.28 899.005 -247.717 850.128C-334.57 794.592 -353.369 677.977 -295.956 596.147C-231.547 504.345 -97.64 484.687 -3.94821 546.275C100.067 614.65 122.14 755.671 51.5003 854.092" stroke="black" stroke-width="0.999999"/>
<path d="M156.868 58.1332C158.108 61.0146 153.442 61.162 151.89 60.1149C147.684 57.2774 149.399 51.2716 152.748 48.5553C158.739 43.6963 167.685 46.4153 171.804 52.1883C177.848 60.6603 173.787 72.1686 165.109 77.2892C153.541 84.1141 138.471 78.9782 131.977 68.0415C123.804 54.2788 130.442 36.7574 144.508 29.3993C161.545 20.4877 182.923 28.1313 191.717 44.2616C202.081 63.2707 192.821 86.8888 173.349 96.4451C150.867 107.478 123.133 97.3028 112.063 75.9681C99.4845 51.7263 111.383 21.9823 136.268 10.2433C164.186 -2.92603 198.296 9.79114 211.631 36.335C226.434 65.8038 211.891 101.687 181.589 115.601" stroke="black" stroke-width="0.999999"/>
<path d="M109.124 315.98C110.073 316.893 108.313 317.661 107.546 317.498C105.468 317.054 105.134 314.494 105.968 312.944C107.459 310.17 111.33 309.845 113.858 311.426C117.568 313.745 117.912 318.768 115.436 322.052C112.136 326.428 105.522 326.763 101.234 323.57C95.8369 319.551 95.4869 311.834 99.6557 306.872C104.705 300.862 114.145 300.524 120.17 305.354C127.271 311.045 127.623 321.495 121.748 328.124C114.966 335.776 102.676 336.115 94.9216 329.642C86.1106 322.286 85.7577 309.089 93.3435 300.799C101.854 291.5 117.003 291.16 126.482 299.281C137.007 308.298 137.36 324.247 128.06 334.196" stroke="#FF0000" stroke-width="0.999999"/>
<path d="M95.2857 1055.13C95.7239 1058.72 90.4811 1057.47 89.095 1055.83C85.3388 1051.4 89.2122 1045.23 93.8291 1043.22C102.088 1039.62 111.159 1045.36 113.858 1053.03C117.818 1064.29 109.536 1075.88 98.1991 1078.95C83.0887 1083.05 67.9879 1072.78 64.3319 1058.64C59.7312 1040.84 72.8486 1023.34 90.9158 1019.4C112.798 1014.63 134.102 1029.61 138.621 1050.23C143.947 1074.53 125.917 1098.02 101.112 1102.78C72.4743 1108.26 44.921 1088.54 39.5688 1061.44C33.4873 1030.64 56.4573 1001.12 88.0025 995.58C123.391 989.362 157.214 1013.84 163.384 1047.43C170.235 1084.72 142.313 1120.27 104.026 1126.6" stroke="#93A7AC" stroke-width="0.999999"/>
<path fill-rule="evenodd" clip-rule="evenodd" d="M-5.22318 355.915C-3.39733 359.568 -9.44171 360.085 -11.5353 358.834C-17.209 355.445 -15.4347 347.53 -11.2926 343.771C-3.88331 337.046 7.93281 339.951 13.7133 347.157C22.1964 357.732 17.794 372.951 6.91557 380.203C-7.58372 389.868 -27.5307 384.253 -36.784 370.511C-48.4283 353.218 -41.1341 330.014 -23.4313 319.483C-1.99088 306.728 26.3316 315.158 38.962 335.48C53.8464 359.429 43.6077 390.73 19.0543 404.491C-9.2935 420.379 -46.0566 409.107 -62.0326 382.188C-80.1857 351.601 -66.9847 312.166 -35.5701 295.194C-0.327629 276.154 44.9031 290.281 64.2106 323.803C85.6456 361.019 69.4743 408.607 31.1931 428.779" fill="#5555FF"/>
<path d="M-5.22318 355.915C-3.39733 359.568 -9.44171 360.085 -11.5353 358.834C-17.209 355.445 -15.4347 347.53 -11.2926 343.771C-3.88331 337.046 7.9328 339.951 13.7133 347.157C22.1964 357.732 17.794 372.951 6.91556 380.203C-7.58372 389.868 -27.5307 384.253 -36.784 370.511C-48.4283 353.218 -41.1341 330.014 -23.4313 319.483C-1.99088 306.728 26.3316 315.158 38.962 335.48C53.8464 359.429 43.6077 390.73 19.0543 404.491C-9.2935 420.379 -46.0566 409.107 -62.0326 382.188C-80.1857 351.601 -66.9847 312.166 -35.5701 295.194C-0.32763 276.154 44.9031 290.281 64.2106 323.803C85.6456 361.019 69.4743 408.607 31.1931 428.779" stroke="#216778" stroke-width="0.999999"/>
</g>
</g>
<defs>
<clipPath id="clip0_280_526">
<rect width="235" height="1080" fill="white"/>
</clipPath>
</defs>
</svg>
