<svg width="960" height="1080" viewBox="0 0 960 1080" fill="none" xmlns="http://www.w3.org/2000/svg">
<g clip-path="url(#clip0_200_6184)">
<mask id="mask0_200_6184" style="mask-type:luminance" maskUnits="userSpaceOnUse" x="2" y="-281" width="961" height="1360">
<path d="M962.543 -280.494H2.49365V1078.82H962.543V-280.494Z" fill="white"/>
</mask>
<g mask="url(#mask0_200_6184)">
<path d="M154.605 969.079C159.856 976.458 147.253 979.799 142.345 977.809C129.046 972.415 129.803 954.341 137.15 944.553C150.291 927.045 176.415 929.133 191.386 942.891C213.358 963.08 209.804 998.198 189.516 1018.13C162.475 1044.7 118.107 1039.61 93.3035 1012.73C62.0909 978.897 68.7427 925.145 102.239 895.502C142.808 859.599 205.979 867.832 240.428 907.972C281.025 955.277 271.206 1027.93 224.427 1067.18C170.419 1112.5 88.2959 1101.09 44.2621 1047.65C-5.77202 986.919 7.2364 895.275 67.3282 846.45C134.742 791.675 235.878 806.286 289.469 873.054C348.966 947.18 332.758 1057.86 259.338 1116.23" stroke="#FFD5D5" stroke-width="0.999999"/>
<path d="M785.846 1112.75L902.423 1109.01L808.289 1033.87C808.289 1033.87 941.031 1005.13 721.176 926.123" fill="#F0E68C"/>
<path d="M1035.48 950.814C1035.48 950.814 125.8 1131.38 992.997 1132.03L1035.48 950.814Z" fill="#6C5353"/>
<path d="M714.67 1050.7L730.986 1117.73L798.158 1112.75L721.635 925.373L718.985 934.882L714.67 1050.7Z" fill="#F0E68C"/>
<path d="M712.556 939.773C708.192 941.643 690.736 987.785 686.373 987.785C682.009 987.785 733.752 1039.54 733.752 1039.54L875.265 1043.28C875.265 1043.28 920.151 1002.13 919.527 999.633C918.904 997.139 875.889 941.643 875.889 941.643" fill="#FFDD55"/>
<path d="M320.892 860.57C363.907 813.805 457.582 1010.23 457.582 1010.23L517.101 941.602L435.496 773.315L320.892 860.57Z" fill="#9F7AEA"/>
<path d="M345.443 849.077L433.582 783.983C433.582 783.983 514.609 941.114 513.747 941.329C512.885 941.545 479.268 980.343 479.268 980.343L422.161 936.156C422.161 936.156 373.243 850.801 345.443 849.077Z" fill="#F9F9F9"/>
<path d="M361.821 845.843L431.212 793.682L509.222 941.114L479.052 976.032L424.1 933.785C424.1 933.785 371.95 846.49 361.821 845.843Z" fill="#AA87DE"/>
<path d="M833.143 935.382C833.143 935.382 613.616 810.163 706.188 761.664C798.759 713.164 825.208 787.236 825.208 787.236C825.208 787.236 856.947 691.118 896.62 736.091C936.294 781.063 833.143 935.382 833.143 935.382Z" fill="#44337A"/>
<path d="M648.882 961.836L456.686 888.646L516.637 816.336L705.306 886L659.461 971.536L648.882 961.836Z" fill="#ECECEC"/>
<path d="M599.069 855.798L616.148 861.322L597.306 898.125L605.406 901.377L599.731 912.785L570.196 901.101L575.596 890.96L580.335 892.614L592.457 869.466L585.404 866.6L588.986 859.601L599.069 855.798Z" fill="#666666"/>
<path d="M604.69 914.549L627.943 865.828L638.743 869.797L637.2 910.581L651.967 874.647L661.445 878.394L639.845 930.091L624.857 923.367L627.502 886.882L613.065 918.517L604.69 914.549Z" fill="#666666"/>
<path d="M652.553 934.473L662.06 937.746L682.788 895.813L691.36 899.71L695.724 892.384L667.359 880.848L664.242 888.019L671.411 890.981L652.553 934.473Z" fill="#B3B3B3"/>
<path d="M466.387 888.721L463.972 882.719L465.764 879.991L475.349 884.434L477.687 881.394L480.336 882.719L473.79 891.682L470.985 890.435L473.167 887.084L467.79 884.512L466.387 888.721Z" fill="#B3B3B3"/>
<path d="M480.82 881.701L469.084 876.521L470.516 874.592L481.702 875.143L473.051 871.615L474.153 870.072L486 874.867L484.457 877.017L473.878 876.576L481.812 879.883L480.82 881.701Z" fill="#B3B3B3"/>
<path d="M475.349 868.689L478.895 864.169L480.297 864.714L479.167 866.312L488.596 870.014L487.583 871.495L477.804 867.793L476.674 869.157L475.349 868.689Z" fill="#B3B3B3"/>
<path d="M505.584 581.861L514.312 559.414C514.312 559.414 609.07 560.037 606.576 588.096C604.083 616.156 594.732 618.65 594.732 618.65L581.017 603.685C581.017 603.685 592.861 577.496 505.584 581.861Z" fill="#ECC94B"/>
<path d="M420.359 931.247L455.627 928.735L461.842 906.749L487.281 914.496L489.449 901.619L491.328 904.76L487.859 916.695L464.155 908.843L456.638 930.41L419.492 932.399L420.359 931.247Z" fill="#F9F9F9"/>
<path d="M550.139 1177L-218.645 924.8L550.139 1177Z" fill="#ECC94B"/>
<path d="M487.543 767.837L434.645 630.273C434.645 630.273 528.098 619.691 522.808 628.509C517.518 637.327 538.677 803.109 538.677 803.109L487.543 767.837Z" fill="#FAF089"/>
<path d="M373.941 860.062L411.122 856.404L417.674 824.398L444.493 835.676L446.779 816.929L448.76 821.502L445.102 838.877L420.112 827.446L412.188 858.843L373.027 861.739L373.941 860.062Z" fill="#F9F9F9"/>
<path d="M398.333 891.383L433.569 887.837L439.778 856.81L465.194 867.744L467.36 849.571L469.238 854.003L465.772 870.846L442.089 859.765L434.58 890.201L397.466 893.008L398.333 891.383Z" fill="#F9F9F9"/>
<path d="M718.478 846.865C718.478 846.865 679.203 740.552 724.401 765.493C769.598 790.435 743.415 829.406 743.415 829.406C743.415 829.406 855.005 777.341 815.418 824.418C775.832 871.495 718.478 846.865 718.478 846.865Z" fill="#8A6F91"/>
<path d="M734.063 843.28C734.063 845.778 733.143 848.179 731.496 849.979C729.849 851.779 727.603 852.84 725.228 852.938C722.854 853.035 720.535 852.163 718.759 850.504C716.983 848.844 715.887 846.527 715.701 844.037C715.515 841.547 716.253 839.078 717.761 837.147C719.269 835.217 721.43 833.975 723.79 833.682C726.15 833.389 728.526 834.068 730.42 835.576C732.315 837.084 733.58 839.305 733.951 841.772" fill="#453748"/>
<path d="M627.282 738.736L976.258 738.37C976.258 738.37 969.4 942.267 879.006 959.726C788.612 977.185 682.632 942.267 677.645 920.443C672.658 898.619 602.478 856.329 627.282 738.736Z" fill="#FFDD55"/>
<path d="M973.764 740.24C973.764 757.483 956.487 774.056 925.554 786.484C894.622 798.913 852.437 806.232 807.843 806.908C763.25 807.583 719.711 801.562 686.356 790.107C653.001 778.652 632.419 762.652 628.926 745.463C625.432 728.273 639.299 711.228 667.619 697.902C695.938 684.576 736.511 676.004 780.831 673.982C825.151 671.96 869.775 676.646 905.349 687.057C940.923 697.468 964.683 712.796 971.648 729.828" fill="#806600"/>
<path d="M793.91 961.836C793.91 961.836 873.898 932.712 876.729 869.08C877.775 845.547 960.318 768.938 961.861 754.168C964.947 724.627 980.375 753.286 980.375 753.286C980.375 753.286 990.073 1009.9 793.91 961.836Z" fill="#FFCC00"/>
<path d="M630.422 772.664C630.422 772.664 625.435 827.847 636.5 834.083C647.566 840.318 646.63 838.759 646.63 838.759C646.63 838.759 637.123 820.053 637.123 819.118C637.123 818.183 635.877 778.744 635.877 778.744C635.877 778.744 661.592 801.97 669.541 802.906C677.489 803.841 665.956 832.212 665.956 832.212L683.256 805.556L718.478 815.533L711.465 842.033L727.05 816.624L796.093 821.768L806.535 831.9L806.846 820.521L856.407 817.559C856.407 817.559 748.506 810.164 727.347 809.282C706.188 808.4 658.008 789.5 652.085 783.264C646.163 777.029 628.396 758.011 628.396 758.011L630.422 772.664Z" fill="#F9F9F9"/>
<path d="M695.412 936.967C693.542 933.226 644.916 854.66 644.916 854.66L649.903 854.348" fill="#F9F9F9"/>
<path d="M708.504 933.226L679.827 841.565L710.686 932.602" fill="#F9F9F9"/>
<path d="M723.777 934.784L738.739 843.436L724.712 936.655" fill="#F9F9F9"/>
<path d="M824.769 1041.72C824.769 1041.72 860.615 977.497 850.329 962.844C840.043 948.191 884.305 949.126 885.552 952.555C886.798 955.985 921.398 1000.26 921.398 1000.26L875.265 1043.59L824.769 1041.72Z" fill="#AA8800"/>
<path d="M802.95 962.844L864.667 967.209C864.667 967.209 912.046 967.209 941.97 899.867C971.894 832.524 957.867 861.831 957.867 861.831C957.867 861.831 866.849 975.003 802.95 962.844Z" fill="#AA8800"/>
<path d="M733.078 1039.22C732.637 1038.33 686.571 988.291 686.571 988.291L711.257 941.555" fill="white"/>
<path d="M736.604 1028.85L779.363 957.427C779.363 957.427 833.143 1039.44 826.971 1039.44C820.8 1039.44 730.873 1038.55 730.873 1038.55L734.841 1028.41" fill="#F2F2F2"/>
<path d="M803.885 963.156C792.976 961.597 721.907 950.373 704.14 939.461C686.373 928.549 776.144 960.35 804.509 949.438C832.874 938.526 852.199 924.808 852.199 924.808C852.199 924.808 820.406 964.091 803.885 963.156Z" fill="#D4AA00"/>
<path d="M732.661 1032.06L746.687 950.841L780.04 957.856L731.881 1037.05L732.661 1032.06Z" fill="#D4AA00"/>
<path d="M686.684 989.033L718.166 1069.47L730.323 1036.11L686.996 987.474L686.684 989.033Z" fill="#D4AA00"/>
<path d="M718.531 1068.54L719.633 1084.19L825.869 1081.76L826.971 1038.11L730.873 1035.69L718.531 1068.54Z" fill="#FFD42A"/>
<path d="M921.747 1001.08L881.192 1098.52L819.037 1083.97L825.208 1040.32L876.784 1039L921.747 1001.08Z" fill="#F4D7EE"/>
<path d="M635.565 732.134C635.565 732.134 681.385 680.069 776.455 680.692C871.525 681.316 949.763 708.751 963.478 726.834C977.193 744.917 965.348 734.628 965.348 734.628C965.348 734.628 777.415 627.65 635.565 732.134Z" fill="#1F1C24"/>
<path d="M790.482 766.429L877.136 800.1L914.228 709.999L910.176 696.904L866.226 789.5L790.482 766.429Z" fill="#333333"/>
<path d="M790.384 766.954L809.339 708.313C809.339 708.313 811.984 692.441 835.347 701.7C858.71 710.959 869.29 714.927 869.29 714.927L878.106 689.795C878.106 689.795 877.665 682.741 893.094 688.032C908.522 693.323 913.812 695.086 913.371 699.495C912.931 703.904 872.816 795.173 872.816 795.173L790.384 766.954Z" fill="#FF2A2A"/>
<path d="M874.33 715.844L878.149 717.403L891.708 708.362L893.422 722.158L897.942 724.028L895.526 706.959L907.683 699.632C907.683 699.632 905.423 697.684 904.721 697.684C904.02 697.684 893.188 703.14 893.188 703.14" fill="#F2F2F2"/>
<path d="M890.773 704.932L888.747 688.954L892.799 689.656L894.903 704.309" fill="#F2F2F2"/>
<path d="M799.641 764.75L806.914 767.175L856.065 732.123L846.147 729.918L799.641 764.75Z" fill="#F2F2F2"/>
<path d="M834.465 776.654L809.78 720.659L817.714 723.084L841.739 780.402L834.465 776.654Z" fill="#F2F2F2"/>
<path d="M359.395 995.579L332.972 985.535L309.719 1001.61L311.105 973.373L288.633 956.222L315.912 948.814L325.276 922.137L340.75 945.798L369.009 946.461L351.293 968.493L359.395 995.579Z" fill="#892CA0"/>
<path d="M424.947 580.009L422.874 575.808L418.239 575.135L421.593 571.865L420.801 567.247L424.947 569.427L429.093 567.247L428.301 571.865L431.655 575.135L427.02 575.808L424.947 580.009Z" fill="#D35FBC"/>
<path d="M1030.74 614.149L930.218 592.671L855.541 663.319L844.901 561.059L754.649 511.853L848.595 470.133L867.493 369.074L936.194 445.548L1038.13 432.296L986.64 521.281L1030.74 614.149Z" fill="#916F6F"/>
<path d="M1040.33 600.291L938.277 587.976L870.281 665.079L850.455 564.198L756.13 523.342L845.927 473.309L855.626 370.956L930.949 440.915L1031.27 418.513L988.025 511.783L1040.33 600.291Z" fill="#E9AFDD"/>
<path d="M439.714 633.139L516.857 632.698L524.571 717.793L521.265 717.573L511.127 637.327L439.714 633.139Z" fill="#E9AFDD"/>
<path d="M489.532 765.649L479.557 733.537L492.96 766.429L536.755 798.541" fill="#806600"/>
<path d="M485.78 709.636L490.408 657.83L509.363 712.061L512.449 770.702L485.78 709.636Z" fill="#FFF6D5"/>
<path d="M432.995 993.973C432.995 1006.39 428.231 1018.33 419.703 1027.28C411.175 1036.24 399.545 1041.51 387.251 1041.99C374.957 1042.48 362.954 1038.14 353.758 1029.89C344.562 1021.64 338.887 1010.12 337.924 997.734C336.961 985.352 340.784 973.075 348.592 963.476C356.399 953.877 367.585 947.701 379.804 946.245C392.023 944.789 404.325 948.164 414.133 955.663C423.94 963.163 430.491 974.204 432.411 986.472" fill="#FF80B2"/>
<path d="M424.947 992.259C424.947 1004.68 420.184 1016.62 411.656 1025.57C403.128 1034.52 391.498 1039.79 379.203 1040.28C366.909 1040.77 354.906 1036.43 345.71 1028.18C336.514 1019.93 330.84 1008.4 329.877 996.021C328.914 983.639 332.737 971.361 340.544 961.762C348.352 952.163 359.537 945.988 371.756 944.532C383.975 943.075 396.278 946.451 406.085 953.95C415.893 961.45 422.443 972.491 424.364 984.759" fill="#ECC94B"/>
<path d="M498.676 987.8C498.676 1003.18 494.111 1017.97 485.939 1029.06C477.766 1040.14 466.621 1046.67 454.839 1047.28C443.057 1047.88 431.554 1042.51 422.741 1032.29C413.928 1022.07 408.49 1007.79 407.567 992.459C406.644 977.123 410.308 961.917 417.79 950.028C425.272 938.139 435.992 930.491 447.702 928.688C459.411 926.884 471.202 931.064 480.6 940.353C489.999 949.641 496.277 963.316 498.117 978.51" fill="#FF80B2"/>
<path d="M399.493 1021.75L358.497 1095.38L423.297 1109.49C423.297 1109.49 459.884 1019.1 451.95 1020.87C444.015 1022.63 399.493 1021.75 399.493 1021.75Z" fill="#FF80B2"/>
<path d="M520.717 1071.79C520.717 1083.81 515.777 1095.37 506.934 1104.03C498.09 1112.7 486.029 1117.8 473.279 1118.27C460.53 1118.74 448.082 1114.55 438.545 1106.56C429.009 1098.57 423.124 1087.42 422.126 1075.43C421.127 1063.45 425.092 1051.57 433.188 1042.28C441.285 1032.98 452.885 1027.01 465.556 1025.6C478.228 1024.19 490.986 1027.46 501.157 1034.71C511.328 1041.97 518.121 1052.66 520.112 1064.53" fill="#FF80B2"/>
<path d="M512.669 1070.08C512.669 1082.1 507.73 1093.66 498.886 1102.32C490.042 1110.99 477.981 1116.09 465.232 1116.56C452.482 1117.03 440.034 1112.83 430.498 1104.85C420.961 1096.86 415.077 1085.7 414.078 1073.72C413.079 1061.74 417.044 1049.85 425.141 1040.56C433.237 1031.27 444.837 1025.29 457.509 1023.88C470.18 1022.47 482.938 1025.74 493.109 1033C503.28 1040.26 510.073 1050.95 512.064 1062.82" fill="#ECC94B"/>
<path d="M391.445 1020.04L350.449 1093.67L415.249 1107.78C415.249 1107.78 451.837 1017.39 443.902 1019.15C435.967 1020.92 391.445 1020.04 391.445 1020.04Z" fill="#ECC94B"/>
<path d="M490.629 986.086C490.629 1001.47 486.064 1016.25 477.891 1027.34C469.719 1038.43 458.573 1044.96 446.791 1045.56C435.009 1046.17 423.506 1040.79 414.693 1030.57C405.88 1020.36 400.442 1006.08 399.52 990.745C398.597 975.41 402.26 960.204 409.743 948.315C417.225 936.426 427.944 928.778 439.654 926.974C451.364 925.171 463.154 929.351 472.553 938.639C481.952 947.928 488.229 961.602 490.069 976.797" fill="#ECC94B"/>
<path d="M922.644 1033.93C926.458 1039.68 916.773 1041.91 913.086 1040.27C903.092 1035.82 904.126 1022.08 909.969 1014.81C920.42 1001.8 940.265 1004.05 951.321 1014.91C967.547 1030.84 963.953 1057.5 947.996 1072.17C926.729 1091.72 893.063 1086.73 874.85 1065.62C851.93 1039.07 858.354 998.294 884.617 976.562C916.424 950.241 964.332 958.107 989.557 989.552C1019.28 1026.61 1009.97 1081.7 973.348 1110.41C931.067 1143.57 868.804 1132.8 836.614 1090.98C800.038 1043.46 812.261 973.989 859.265 938.318C911.996 898.301 988.66 911.985 1027.79 964.195C1071.24 1022.16 1056.1 1106.05 998.7 1148.66" stroke="black" stroke-width="0.999999"/>
<path fill-rule="evenodd" clip-rule="evenodd" d="M495.846 494.585C496.2 495.293 495.068 495.411 494.671 495.173C493.596 494.528 493.905 492.979 494.671 492.234C496.041 490.9 498.267 491.433 499.373 492.822C500.997 494.86 500.217 497.842 498.198 499.288C495.506 501.216 491.747 500.179 489.969 497.525C487.732 494.185 489.03 489.637 492.32 487.531C496.304 484.98 501.644 486.542 504.075 490.47C506.94 495.099 505.114 501.235 500.549 503.991C495.278 507.173 488.346 505.081 485.267 499.876C481.768 493.962 484.126 486.23 489.969 482.828C496.524 479.011 505.053 481.635 508.777 488.119C512.911 495.317 510.021 504.648 502.9 508.694" fill="#C4B7C8"/>
<path d="M495.846 494.585C496.2 495.293 495.068 495.411 494.671 495.173C493.596 494.528 493.905 492.979 494.671 492.234C496.041 490.9 498.267 491.433 499.373 492.822C500.997 494.86 500.217 497.842 498.198 499.288C495.506 501.216 491.747 500.179 489.969 497.525C487.732 494.185 489.03 489.637 492.32 487.531C496.304 484.98 501.644 486.542 504.075 490.47C506.94 495.099 505.114 501.235 500.549 503.991C495.278 507.173 488.346 505.081 485.267 499.876C481.768 493.962 484.126 486.23 489.969 482.828C496.524 479.011 505.053 481.635 508.777 488.119C512.911 495.317 510.021 504.648 502.9 508.694" stroke="#453748" stroke-width="0.999999"/>
<path fill-rule="evenodd" clip-rule="evenodd" d="M580.765 1047.55C581.959 1050.04 578.133 1050.45 576.792 1049.62C573.16 1047.35 574.204 1041.9 576.792 1039.28C581.421 1034.59 588.943 1036.46 592.682 1041.35C598.169 1048.51 595.533 1059 588.71 1064.09C579.615 1070.87 566.91 1067.22 560.903 1057.89C553.343 1046.14 557.731 1030.14 568.847 1022.74C582.312 1013.77 600.356 1019.26 608.572 1033.08C618.254 1049.36 612.082 1070.94 596.654 1080.63C578.843 1091.82 555.418 1084.46 545.013 1066.16C533.19 1045.36 541.157 1018.16 560.903 1006.2C583.054 992.773 611.877 1002 624.462 1024.81C638.433 1050.12 628.666 1082.94 604.599 1097.17" fill="#7137C8"/>
<path d="M580.765 1047.55C581.959 1050.04 578.133 1050.45 576.792 1049.62C573.16 1047.35 574.204 1041.9 576.792 1039.28C581.421 1034.59 588.943 1036.46 592.682 1041.35C598.169 1048.51 595.533 1059 588.71 1064.09C579.615 1070.87 566.91 1067.22 560.903 1057.89C553.343 1046.14 557.731 1030.14 568.847 1022.74C582.312 1013.77 600.356 1019.26 608.572 1033.08C618.254 1049.36 612.082 1070.94 596.655 1080.63C578.843 1091.82 555.418 1084.46 545.013 1066.16C533.19 1045.36 541.157 1018.16 560.903 1006.2C583.054 992.773 611.877 1002 624.462 1024.81C638.433 1050.12 628.666 1082.94 604.599 1097.17" stroke="#453748" stroke-width="3.44746"/>
<path d="M325.322 801.786C325.322 801.786 294.024 723.305 268.898 737.414C243.771 751.523 278.596 717.573 278.596 717.573C278.596 717.573 368.082 790.764 327.527 801.786" fill="#7137C8"/>
<path d="M325.322 801.786C325.322 801.786 294.024 723.305 268.898 737.414C243.771 751.523 278.596 717.573 278.596 717.573C278.596 717.573 368.082 790.764 327.527 801.786" stroke="#453748" stroke-width="2.89134" stroke-linecap="round" stroke-linejoin="round"/>
<path d="M607.445 241.391L635.657 420.4L651.527 433.627L637.42 239.627L607.445 241.391Z" fill="#FF80E5" stroke="#453748" stroke-width="2.89134" stroke-linecap="round" stroke-linejoin="round"/>
<path d="M355.343 702.828L276.793 654.192L277.417 567.52L352.849 620.521L355.343 702.828Z" fill="#F2F2F2" stroke="#FFCCAA" stroke-width="2.89134" stroke-linecap="round" stroke-linejoin="round"/>
<path d="M750.269 404.527L759.086 297.827L836.669 274.9L830.498 359.555L750.269 404.527Z" fill="#FFB380"/>
<path d="M228.958 1047.65C220.187 1011.63 198.686 952.356 177.834 906.71C177.344 905.638 177.287 904.901 177.681 904.727C178.075 904.553 178.873 904.963 179.826 905.83C220.425 942.763 275.965 987.016 311.887 1011.06C312.731 1011.62 313.758 1012.66 314.65 1013.86C315.541 1015.06 316.191 1016.27 316.397 1017.12C325.168 1053.14 346.669 1112.41 367.521 1158.05C368.011 1159.13 368.068 1159.86 367.674 1160.04C367.279 1160.21 366.482 1159.8 365.529 1158.93C324.93 1122 269.39 1077.75 233.468 1053.71C232.624 1053.14 231.597 1052.1 230.705 1050.9C229.813 1049.7 229.164 1048.49 228.958 1047.65ZM360.19 1149.98C340.403 1105.92 320.424 1050.85 311.343 1015.32C276.13 991.325 224.522 950.205 185.165 914.783C204.952 958.84 224.931 1013.92 234.012 1049.44C269.225 1073.44 320.832 1114.56 360.19 1149.98Z" fill="#AC9393"/>
<path d="M197.277 932.771C196.855 931.786 196.826 931.118 197.199 930.954C197.571 930.789 198.305 931.146 199.195 931.925C232.662 961.197 272.591 993.012 303.398 1014.95C304.217 1015.54 305.183 1016.53 306.026 1017.67C306.869 1018.8 307.498 1019.95 307.738 1020.79C316.745 1052.35 332.202 1094.96 348.078 1131.99C348.5 1132.98 348.528 1133.64 348.156 1133.81C347.784 1133.97 347.05 1133.62 346.16 1132.84C312.693 1103.57 272.765 1071.75 241.957 1049.81C241.138 1049.23 240.172 1048.23 239.329 1047.1C238.485 1045.96 237.856 1044.82 237.617 1043.98C228.61 1012.42 213.153 969.806 197.277 932.771ZM258.373 1057.36L228.649 975.415L221.663 966.029L253.465 1053.7C255.085 1054.9 256.723 1056.12 258.373 1057.36ZM268.887 1065.33L243.521 995.4L236.536 986.014L263.938 1061.56C265.578 1062.8 267.226 1064.06 268.887 1065.33ZM279.486 1073.53L258.393 1015.39L251.408 1006L274.498 1069.65C276.153 1070.94 277.817 1072.23 279.486 1073.53ZM300.918 1090.59L288.137 1055.36L281.152 1045.97L295.858 1086.51C297.544 1087.86 299.231 1089.22 300.918 1090.59ZM311.754 1099.45L303.009 1075.34L296.024 1065.95L306.654 1095.26C308.357 1096.65 310.057 1098.05 311.754 1099.45ZM322.67 1108.53L317.882 1095.33L310.897 1085.94L317.532 1104.23C319.251 1105.66 320.965 1107.09 322.67 1108.53ZM325.768 1105.92L328.496 1113.44C331.146 1115.69 333.771 1117.93 336.37 1120.17L325.768 1105.92ZM302.843 1019.07C274.704 998.818 239.777 971.089 208.985 944.594L217.394 955.893C217.395 955.894 217.395 955.895 217.396 955.896L232.266 975.878C232.267 975.879 232.267 975.88 232.268 975.881L247.139 995.863C247.139 995.864 247.14 995.865 247.14 995.866L262.011 1015.85C262.011 1015.85 262.012 1015.85 262.013 1015.85L276.883 1035.83C276.883 1035.83 276.884 1035.84 276.885 1035.84L291.755 1055.82C291.755 1055.82 291.756 1055.82 291.757 1055.82L306.627 1075.8C306.628 1075.8 306.629 1075.81 306.629 1075.81L321.499 1095.79C321.5 1095.79 321.501 1095.79 321.501 1095.79L338.833 1119.08C324.716 1085.23 311.309 1048.01 302.843 1019.07ZM290.163 1081.96L273.265 1035.37L266.28 1025.98L285.139 1077.97C286.81 1079.29 288.485 1080.62 290.163 1081.96ZM247.949 1049.64L213.776 955.43L206.521 945.681C220.639 979.533 234.046 1016.76 242.512 1045.69C244.297 1046.98 246.112 1048.29 247.949 1049.64Z" fill="#AC9393"/>
<path d="M750.573 534.269C737.483 527.234 721.906 520.773 704.276 515.065C674.393 505.389 648.479 501.143 648.22 501.101C647.219 500.939 646.358 501.196 645.946 501.779C645.84 501.93 635.257 517.057 629.174 537.456C625.584 549.49 624.229 560.999 625.145 571.664C626.306 585.18 631.139 597.396 639.509 607.973C656.562 629.522 689.196 641.461 712.255 634.586C719.399 632.456 724.935 628.77 728.555 623.784C732.478 634.886 733.698 645.879 732.079 655.918C731.946 656.745 732.51 657.73 733.514 658.425C734.519 659.119 735.771 659.389 736.7 659.112L794.008 642.026C794.938 641.749 795.366 640.978 795.098 640.064C794.83 639.151 793.917 638.269 792.775 637.822C779.043 632.446 765.819 625.135 754.101 616.476C762.472 617.685 770.372 617.26 777.298 615.195C800.357 608.32 805.243 585.195 788.189 563.645C779.82 553.069 767.164 543.185 750.573 534.269ZM790.341 576.651L760.554 565.661C760.933 563.244 761.112 560.765 761.094 558.236C761.552 558.243 761.978 558.188 762.355 558.076C763.51 557.732 764.226 556.871 764.146 555.695C764.041 554.124 762.548 552.497 760.617 551.692C760.269 549.138 759.731 546.543 759.002 543.918C764.332 547.306 769.086 550.807 773.24 554.407C773.035 554.34 772.827 554.279 772.616 554.232C770.16 553.688 768.272 554.765 768.398 556.636C768.525 558.507 770.621 560.463 773.078 561.007C773.989 561.209 774.824 561.188 775.504 560.985C776.659 560.641 777.375 559.78 777.295 558.603C777.283 558.416 777.245 558.229 777.195 558.042C779.546 560.337 781.661 562.669 783.533 565.034C786.587 568.892 788.846 572.808 790.341 576.651ZM751.261 574.867C746.076 585.406 736.229 593.095 722.786 597.102C709.407 601.091 693.55 601.107 676.931 597.147C660.706 593.282 644.92 585.942 631.272 575.919C631.142 574.929 631.032 573.932 630.944 572.926C630.933 572.793 630.926 572.659 630.915 572.526C657.946 593.411 694.05 602.416 720.703 594.47C747.359 586.523 758.145 563.539 748.11 537.586C748.257 537.664 748.408 537.742 748.554 537.82C749.805 538.493 751.03 539.171 752.232 539.854C756.609 552.572 756.277 564.671 751.261 574.867ZM687.37 552.349C691.564 551.099 697.52 553.296 700.647 557.248C703.774 561.199 702.906 565.432 698.713 566.682C694.519 567.932 688.563 565.735 685.436 561.783C682.309 557.832 683.177 553.599 687.37 552.349ZM634.84 539.887C639.23 525.135 646.019 513.202 649.318 507.901L681.737 548.867C676.899 551.58 676.331 557.551 680.779 563.171C685.82 569.542 695.423 573.085 702.185 571.069C708.946 569.054 710.346 562.23 705.304 555.86C700.856 550.239 692.859 546.822 686.394 547.479L653.974 506.512C662.782 508.192 682.196 512.279 703.782 519.268C717.646 523.756 730.166 528.707 741.121 534.026C752.779 559.419 743.059 582.382 717.231 590.082C691.405 597.782 655.987 588.276 630.678 566.954C630.639 558.402 632.031 549.325 634.84 539.887ZM638.992 598.969C639.331 599.242 639.709 599.494 640.125 599.712C641.582 600.478 643.127 600.664 644.279 600.321C644.962 600.117 645.505 599.728 645.81 599.163C646.632 597.642 645.42 595.422 643.102 594.204C640.784 592.987 638.239 593.232 637.417 594.753C637.279 595.007 637.203 595.282 637.175 595.567C635.007 591.184 633.376 586.554 632.291 581.698C635.305 583.742 638.405 585.666 641.574 587.466C641.46 588.88 642.616 590.566 644.528 591.57C645.986 592.336 647.53 592.522 648.682 592.179C649.043 592.071 649.363 591.91 649.631 591.7C652.763 593.216 655.948 594.614 659.173 595.885L654.833 617.051C650.836 613.954 647.219 610.443 644.165 606.584C642.236 604.147 640.511 601.607 638.992 598.969ZM660.239 620.843L664.923 598C668.123 599.097 671.354 600.07 674.605 600.913C675.063 602.595 676.972 604.225 679.179 604.713C680.09 604.915 680.925 604.894 681.608 604.69C682.57 604.403 683.219 603.75 683.363 602.858C686.583 603.451 689.768 603.9 692.907 604.208L701.035 630.344C701.176 630.797 701.47 631.23 701.86 631.605C688.563 633.165 673.061 628.982 660.239 620.843ZM731.382 617.151C730.936 616.154 729.783 615.289 728.527 615.008C727.271 614.727 726.196 615.092 725.864 615.914C723.109 622.749 717.202 627.689 708.783 630.199C708.088 630.406 707.384 630.592 706.67 630.761C706.668 630.754 706.668 630.747 706.666 630.74L698.54 604.61C701.664 604.748 704.734 604.739 707.738 604.583C708.973 606.185 711.287 607.268 713.261 607.078C713.532 607.052 713.783 607.006 714.013 606.937C715.477 606.501 716.128 605.254 715.642 603.808C718.473 603.396 721.229 602.842 723.9 602.145L759.23 646.791C759.269 646.841 759.312 646.888 759.354 646.935L738.409 653.179C739.279 641.79 736.882 629.439 731.382 617.151ZM745.749 610.417C744.497 610.086 743.382 610.391 742.981 611.174C742.579 611.957 742.982 613.041 743.981 613.865C756.218 623.965 770.408 632.638 785.355 639.183L763.995 645.552C763.96 645.502 763.926 645.453 763.887 645.403L728.556 600.758C731.096 599.901 733.505 598.915 735.779 597.807C737.342 598.988 739.395 599.475 740.887 599.03C741.12 598.961 741.337 598.871 741.538 598.757C743.028 597.906 743.043 596.068 741.679 594.461C743.732 593.11 745.638 591.636 747.39 590.047L775.85 610.136C775.193 610.375 774.52 610.6 773.826 610.807C765.645 613.246 755.936 613.111 745.749 610.417ZM780.195 608.178C780.078 608.074 779.955 607.973 779.82 607.878L750.358 587.081C751.901 585.38 753.292 583.571 754.521 581.655C755.787 582.174 757.072 582.275 758.062 581.98C758.742 581.777 759.286 581.387 759.594 580.822C760.345 579.432 759.395 577.461 757.457 576.201C758.385 574.115 759.136 571.959 759.708 569.742L791.855 581.603C794.327 592.714 790.204 602.693 780.195 608.178Z" fill="#8080FF"/>
<path d="M744.699 601.713C743.055 602.652 743.2 604.799 745.027 606.507C746.632 608.006 748.997 608.667 750.664 608.17C750.897 608.101 751.113 608.011 751.315 607.897C752.962 606.957 752.818 604.813 750.991 603.105C749.164 601.398 746.346 600.774 744.699 601.713Z" fill="#8080FF"/>
<path d="M715.094 610.434C712.873 610.648 711.933 612.393 712.99 614.33C714.047 616.267 716.705 617.662 718.926 617.448C719.193 617.422 719.445 617.372 719.675 617.304C721.345 616.806 721.96 615.256 721.03 613.552C719.973 611.615 717.315 610.22 715.094 610.434Z" fill="#8080FF"/>
<path d="M680.082 617.969C677.628 617.428 675.738 618.502 675.866 620.376C675.993 622.247 678.086 624.204 680.542 624.748C681.454 624.949 682.289 624.928 682.972 624.725C684.124 624.381 684.837 623.518 684.758 622.341C684.632 620.47 682.538 618.513 680.082 617.969Z" fill="#8080FF"/>
<path d="M679.402 607.952C676.945 607.408 675.057 608.484 675.186 610.358C675.312 612.229 677.406 614.186 679.862 614.73C680.774 614.932 681.609 614.911 682.292 614.707C683.444 614.364 684.157 613.5 684.078 612.324C683.951 610.453 681.858 608.495 679.402 607.952Z" fill="#8080FF"/>
<path d="M769.293 582.385C766.975 581.168 764.43 581.413 763.605 582.932C762.78 584.454 763.995 586.673 766.31 587.891C767.768 588.657 769.314 588.847 770.469 588.502C771.149 588.3 771.693 587.91 771.998 587.345C772.823 585.823 771.611 583.603 769.293 582.385Z" fill="#8080FF"/>
<path d="M776.014 589.453C775.188 590.975 776.4 593.195 778.718 594.413C780.176 595.178 781.723 595.368 782.874 595.025C783.557 594.821 784.101 594.431 784.406 593.867C785.231 592.344 784.016 590.125 781.701 588.907C779.381 587.686 776.838 587.935 776.014 589.453Z" fill="#8080FF"/>
<path d="M357.061 471.545C357.061 471.545 303.282 318.109 249.502 310.173C195.722 302.236 238.922 275.782 238.922 275.782C238.922 275.782 338.547 326.045 342.955 363.082C347.363 400.118 357.061 471.545 357.061 471.545Z" fill="#8080FF"/>
<path d="M508.701 451.541L422.671 376.717H451.348L508.701 451.541Z" fill="#FFDD55"/>
<path d="M462.321 1099.31C465.504 1102.05 460.197 1104.95 457.766 1104.6C451.178 1103.65 449.517 1095.42 451.741 1090.2C455.721 1080.86 467.718 1078.9 475.986 1083.44C488.12 1090.1 490.41 1106.31 483.48 1117.54C474.244 1132.5 453.696 1135.13 439.546 1125.77C421.739 1113.99 418.779 1089.04 430.582 1071.97C444.877 1051.31 474.243 1048.01 494.207 1062.27C517.733 1079.08 521.36 1112.89 504.639 1135.76C485.334 1162.16 447.08 1166.12 421.325 1146.93C392.061 1125.12 387.766 1082.4 409.423 1053.75C433.719 1021.61 480.891 1016.98 512.427 1041.11C547.438 1067.9 552.4 1119.55 525.799 1153.98" stroke="#8D5FD3" stroke-width="0.999999"/>
<path d="M806.535 334.394C806.535 337.073 805.326 339.648 803.163 341.579C800.999 343.51 798.048 344.647 794.929 344.752C791.81 344.857 788.765 343.922 786.432 342.142C784.099 340.362 782.659 337.876 782.415 335.205C782.17 332.534 783.14 329.886 785.121 327.816C787.102 325.745 789.94 324.413 793.04 324.099C796.14 323.785 799.261 324.513 801.749 326.131C804.238 327.748 805.899 330.13 806.387 332.776" stroke="#8D5FD3" stroke-width="2.89134" stroke-linecap="round" stroke-linejoin="round"/>
<path d="M812.457 305.789C812.457 306.434 812.223 307.053 811.804 307.518C811.386 307.982 810.815 308.256 810.211 308.281C809.607 308.307 809.018 308.081 808.566 307.653C808.115 307.225 807.836 306.627 807.789 305.984C807.741 305.342 807.929 304.704 808.312 304.206C808.696 303.708 809.245 303.388 809.845 303.312C810.445 303.236 811.049 303.412 811.531 303.801C812.012 304.19 812.334 304.763 812.428 305.4" fill="#D38D5F"/>
<path d="M812.457 305.789C812.457 306.434 812.223 307.053 811.804 307.518C811.386 307.982 810.815 308.256 810.211 308.281C809.607 308.307 809.018 308.081 808.566 307.653C808.115 307.225 807.836 306.627 807.789 305.984C807.741 305.342 807.929 304.704 808.312 304.206C808.696 303.708 809.245 303.388 809.845 303.312C810.445 303.236 811.049 303.412 811.531 303.801C812.012 304.19 812.334 304.763 812.428 305.4" stroke="#D38D5F" stroke-width="2.89134" stroke-linecap="round" stroke-linejoin="round"/>
<path d="M785.183 369.468C785.183 372.429 784.559 375.275 783.442 377.409C782.326 379.544 780.803 380.801 779.193 380.917C777.583 381.033 776.011 379.999 774.807 378.031C773.603 376.064 772.86 373.317 772.734 370.365C772.608 367.413 773.108 364.486 774.131 362.197C775.153 359.909 776.618 358.437 778.218 358.089C779.818 357.742 781.429 358.547 782.713 360.335C783.997 362.123 784.855 364.755 785.107 367.68" fill="#D38D5F"/>
<path d="M785.183 369.468C785.183 372.429 784.559 375.275 783.442 377.409C782.326 379.544 780.803 380.801 779.193 380.917C777.583 381.033 776.011 379.999 774.807 378.031C773.603 376.064 772.86 373.317 772.734 370.365C772.608 367.413 773.108 364.486 774.131 362.197C775.153 359.909 776.618 358.437 778.218 358.089C779.818 357.742 781.429 358.547 782.713 360.335C783.997 362.123 784.855 364.755 785.107 367.68" stroke="#D38D5F" stroke-width="2.89134" stroke-linecap="round" stroke-linejoin="round"/>
<path d="M803.885 333.303C803.885 335.78 802.942 338.162 801.253 339.948C799.564 341.733 797.26 342.785 794.825 342.882C792.391 342.979 790.013 342.114 788.192 340.468C786.371 338.822 785.247 336.523 785.056 334.053C784.865 331.583 785.622 329.134 787.169 327.219C788.715 325.304 790.93 324.072 793.35 323.782C795.77 323.491 798.207 324.165 800.15 325.661C802.092 327.157 803.389 329.359 803.77 331.806" fill="#D38D5F"/>
<path d="M803.885 333.303C803.885 335.78 802.942 338.162 801.253 339.948C799.564 341.733 797.26 342.785 794.825 342.882C792.391 342.979 790.013 342.114 788.192 340.468C786.371 338.822 785.247 336.523 785.056 334.053C784.865 331.583 785.622 329.134 787.169 327.219C788.715 325.304 790.93 324.072 793.35 323.782C795.77 323.491 798.207 324.165 800.15 325.661C802.092 327.157 803.389 329.359 803.77 331.806" stroke="#D38D5F" stroke-width="2.89134" stroke-linecap="round" stroke-linejoin="round"/>
<path fill-rule="evenodd" clip-rule="evenodd" d="M755.891 252.483L896.489 224.858V233.97L755.891 260.166V252.483Z" fill="#E9E9FF"/>
<path fill-rule="evenodd" clip-rule="evenodd" d="M683.256 199.631V210.049L755.891 260.166V252.483L683.256 199.631Z" fill="#353564"/>
<path fill-rule="evenodd" clip-rule="evenodd" d="M683.256 199.631L867.785 145.247L896.49 224.858L755.891 252.483L683.256 199.631Z" fill="#4D4D9F"/>
<path fill-rule="evenodd" clip-rule="evenodd" d="M683.256 210.049L867.785 158.478L896.49 233.97L755.891 260.166L683.256 210.049Z" fill="#AFAFDE"/>
<path fill-rule="evenodd" clip-rule="evenodd" d="M867.785 145.247V158.478L896.489 233.97V224.858L867.785 145.247Z" fill="#D7D7FF"/>
<path fill-rule="evenodd" clip-rule="evenodd" d="M683.256 199.631L867.785 145.247V158.478L683.256 210.049V199.631Z" fill="#8686BF"/>
<path d="M440.126 274.456C440.814 275.456 439.117 275.877 438.464 275.599C436.693 274.847 436.834 272.426 437.841 271.13C439.64 268.813 443.137 269.15 445.114 271.027C448.014 273.781 447.461 278.48 444.698 281.107C441.015 284.609 435.08 283.83 431.814 280.172C427.705 275.569 428.714 268.379 433.269 264.479C438.785 259.756 447.234 260.998 451.763 266.454C457.101 272.883 455.626 282.6 449.27 287.758C441.931 293.714 430.949 292.004 425.165 284.745C418.591 276.495 420.536 264.241 428.697 257.828C437.853 250.635 451.376 252.815 458.413 261.881C466.225 271.947 463.81 286.746 453.841 294.409" stroke="#C4B7C8" stroke-width="0.999999"/>
</g>
</g>
<defs>
<clipPath id="clip0_200_6184">
<rect width="960" height="1358" fill="white" transform="translate(0 -278)"/>
</clipPath>
</defs>
</svg>
